/* XPM */
static const char *ceiling[] = {
/* columns rows colors chars-per-pixel */
"64 64 69 1 ",
"  c #161716",
". c #171917",
"X c #1B1C1A",
"o c #1E201D",
"O c #20211E",
"+ c #222422",
"@ c #262A26",
"# c #282B27",
"$ c #2A2D2A",
"% c #2E322E",
"& c #31332F",
"* c #323532",
"= c #353934",
"- c #383A36",
"; c #3A3D39",
": c #3D413C",
"> c #40443F",
", c #3F4440",
"< c #414641",
"1 c #464A45",
"2 c #484D47",
"3 c #4A4E49",
"4 c #4E524D",
"5 c #51554F",
"6 c #4F5551",
"7 c #525452",
"8 c #525652",
"9 c #545652",
"0 c #555654",
"q c #545852",
"w c #545854",
"e c #555955",
"r c #565B56",
"t c #585C56",
"y c #585B58",
"u c #585C58",
"i c #595D59",
"p c #5B5F5B",
"a c #5C605B",
"s c #5D625C",
"d c #5F635F",
"f c #60645F",
"g c #606460",
"h c #636762",
"j c #646763",
"k c #646963",
"l c #646964",
"z c #696D67",
"x c #6A6E6A",
"c c #6B706A",
"v c #6D706B",
"b c #6E726E",
"n c #70746E",
"m c #727772",
"M c #747872",
"N c #757975",
"B c #787C76",
"V c #7B7F79",
"C c #7E827C",
"Z c #7F837C",
"A c #80857E",
"S c #838781",
"D c #868A84",
"F c #878C85",
"G c #898D86",
"H c #8A8E89",
"J c #8D918A",
"K c #90948D",
"L c #939790",
/* pixels */
"842>;*$$##$$%%=;:::;;==;<esseeeye32:=%$+OooO+ooXXXX.    ..XX..  ",
"ie43<;*$$####$%*;;;;===;<essiieie42<;%$++ooO++ooXX.             ",
"ate42:=%$$#####$$*-=**=;<28iiiieee42:*$@+OO+#@@+ooXX      ..    ",
"hsie3>;&%$#$$$$##$%%%%%=:<<4iiiieee3:=%#+++#&%%$@++oX.......    ",
"khsi82:=%$$$&*&$$##$$@$%=::<4iieeei4<;=$##$%-;;=**$++XXX....    ",
"khhae3>;*$$*=-=*&$$$$@@%*=::234ee8e82:=*$$%=><<:;==*$++XX...    ",
"khhie4<;=$#&;<<;;=*%$@@$%*=;:<1388843<;*&%*:234442<;=$+oX...    ",
"lhhie4<;=$@*<33442:;*$#@@$%*;:::23333<;=%%=<34qtye31<-%#+XX.    ",
"hhsie3<;=$@=39eii83<:=*$$$@$%*;;:<222<:=%*;<38etee821<;=$+X.    ",
"hhsie3<;=%%;4ihllhe832:=*$$@$$%*;:<<<<:=%*;<38eitye821<-%#XX.   ",
"hhie83<;=%%:8slcxlsie43<:;*%$$$$%*;;:;=*%*;<38eiiisy831:=$+X.   ",
"ssi883<:=%*<ehxbbxlhiie432:=%$$@@$%*==****;<38qiishie43<-%+X..  ",
"eiie43<:=*=<ehcmmbcxlhsie83:=$@@@@@$$$%%%%=:245eissie832:=$+XXXX",
"48e842<:;==<8hbNNmbbbclhhse3<%++@@@@@$$$%**=:348iasiee43<=%++++o",
"233442<:=**:8scmmbcxxxxxlhi42*@@@$%%$$$$$%==;<348eiiee43<;&#++++",
":<2332<:-%%:4slvbxljlllllhi42=$$%*=**%%$$$*;-;<138seee442:*#+@@#",
"=;:<<<:;=%%:3ikxclhhhklkkhi52;%%=::::;=*%$%=;=-:<2858q532:=$@@$%",
"**=;;;==*%%;38slllhhhklkkhse3:%*;234843<=%%%*====;<358532<;%$#&-",
"%%%%%%%$$$%;24eihhhhhkllllki8:*;<4eihsi42<;*%%***==;>2432<;*%$=:",
"$$$%$$@@@+$=<348eisshhklzllfe<=:38slxxxhe42:;*%%%%*==;<<<<;=**=:",
"%%%%%$$@@@$%;<2444eiiashlkhaq:=:28slcbbclse3<:=%%$%%&*=;::;***=<",
"*==*%$$@@@@$=:<22234eeisffsi8:*;25skbMMmbzhi52<;=%%$$%%&===***;<",
":::;;=%$@@@$$*=;::<<24qeiii83:*-<8shcmmmbxkhs42:=&%$#$$$%****=;<",
"2332<:;=%$$@$$$%*==;:<245553<;&=<8aflvnnbxkhfe2<;*&%$$$$$$&***;<",
"48e8422<:=%$$@@@$%%*=;:<2221:=%=:4ashznnbxkhfa42:==&%&&&%$$$%%=:",
"essssieq5<;=%$$$$$$$%&=-;::;=*%*:4iafhxvvxhhsse3<;======*&%$$%*;",
"slxccxzlfe3<:==*%$$$$$&**===&%%%:3tiaflxxzhhssi32:-==-;;;-=*$$&;",
"cmMNNNNmbche3>:;=&%$$$$%&$$%$$$%=28eishhhhhhsie42:-===;233<;=**=",
"nNVZZAZVBNbli42>;==*&$$$$##$$$$$=:348eaiisssii042<;-;<24ei82<:==",
"nVZDFGGDAVNmzft42>;--*$$#$$$#$$$%=<2345qeeiiii032<;;>24yhlse43<:",
"nZSGJJJGDAZNmxkse42<>;=*&&&&&$@$$*;:>13348eeee932<;;<3eslclfie42",
"mZSHJKLJGDSZBMvxkse53<;;-----%@$$%*==;:><23458532<;;<4eslxlhhsi8",
"mZAGJKKKJGDSZVMbclse42::>23<;=&$##$%%*==;:<<23331;;-<4ishllhhhsi",
"NVADFGJKJGDSSZVMmxht52><4skaq3>-%#@@$%**==;;::<<;--->4eshhhhhhsi",
"NVZDSDGJJGDSSSSVNmlaq3<1ibMblf82:=%%$$%%***===;;-=--;38iisshhhii",
"mNNVZADFGGDSAAAZBnlfi422sNVNmcha82:;*%$%$$$%*=--===*-<4eeiissssi",
"bnnNNZADDDDSSAZZNnlhs533hVAZVMvlhi52:-&&%$$$$%*=*&&&*:2348eeissi",
"szvbnMBVZZZSSAAABnzks845hZDSSAZMxhae3<;=*%$$@@$**%%&*;:23448eiie",
"38szlzzvmNBVZZZZVmxlsq48lZDFDDSZNvkae3<;=**%%$%****%%*;;<223458e",
"2235taffhzccnMNVBmclfe4qlZFGFFDSZVmhi82<:===*****%%$$%*=;<<<2234",
"1<1124qtasfhkzvmmvxlht8tlVSDDSSSZVBvhi43<;;;;::<;=*%%%&%=;;:::<2",
"1>111<13455eeihcclkhfiqehmZZZZAAAVVNvht42:;:<2443<:;=&%$$%**=;;;",
"q4211>::>12234tfhfaai84qavNVVZZZZZVNmzaq4<:<24essae4<:=%$$$%%&*=",
"kaq4211>>::><23448q83112ekvNBBBBBBBNmlie83:<38slxcla83<;*%%%$$$*",
"nzftq4321;===;:><<11>:>14akbMmmMMNNMnkiee4234ilbmmblhi83<=**%$@$",
"Bmvlfaq42:;===;;:::::;:<28ikcccvnnmnckste833ehbNNVNvlhse4:=*%%$%",
"ZVMbzhat42<::;;;::::;-;>125illklcvnvzhsie843elmVZZBMnxhie2;=**%%",
"SZBmvkfa822>::::::::;;;:<135issfhklllhsie844ilmNZZVNMnzha4<-=*&=",
"AVBMvcfi532<><13432<::::::>234448etassait54qilnBZZVVNmczfi3:====",
"AZBMncft432248eshat522<>>::::::<2344qqq85445ehvNVVVBBNnnks8<;--:",
"AZBMncfi54335almmvzhse532>:;;-;;:<<233332224qszmNBNBBBMmlse2;;:<",
"ZVBMncfi5444qsNZZVMMnxhi52<:::;;;;::11<1<<<34azbMNMMNMmnxst3::>2",
"ZZBMnvfa5444qfVDFSZZVNmxhi5321<;;;;;:;:::::<28sznmmmmbbvxhi51:14",
"ZBMMncfa54444sNFHSSAZZVMmvlsq43<::::;;;;;;::>13qflzzlzzxlhi81:24",
"NMnnvzft44434smDGDSSSSAZVNmbli421<<<<:;-;;;::<124tsfsshhhfi82:28",
"nnvnvlse44423avAFSSSSSSAAZBMbhe3222332<>:;;::><<224qeeeiite41,26",
"bvbbclse43322izZDSDDSSSSSSZBMle42235tie83<:;;:::><2444448432<<26",
"vccxxkaq44323izZDSDSSSSSAAZBMle444qthllkse42<>:><>::,<<2322<::<3",
"klzklhiq44323izZDSSSSSSSSZVBMkt548ifznmnbclhi821<<;%%=;;::::;:<2",
"asffhse844323ixZDSSSSSSSSZVBMkt548aznNVVZVNMblse42:*%%=*======:<",
"48etit4444323ikNZZZASSSSSZVBMkt548svNZSSDSZVBMbli84:-;;;;;;;===:",
"1244543333223tsbBBNBVZSSSZVBMht548sbBSDFFDSZVVMvhsi<::::::::;;;;",
":<22222222222eekbmmmmNVZZZVNmhe54qsbBSGGGGDSZVNnxlh2<::,<111<:::",
"::<<<2<<><<2234qahxxcbbmNMmbche44qsbBSGGGGGGFZBMvvs2<:148iie82<:"
};
