/* XPM */
static const char *floor[] = {
/* columns rows colors chars-per-pixel */
"64 64 58 1 ",
"  c #0A0C0A",
". c #0E110E",
"X c #10130F",
"o c #131612",
"O c #161A15",
"+ c #181C17",
"@ c #1A1E19",
"# c #1D221C",
"$ c #1F241D",
"% c #1E241E",
"& c #20231E",
"* c #20251E",
"= c #20241F",
"- c #20251F",
"; c #1F2520",
": c #212320",
"> c #232723",
", c #242723",
"< c #242724",
"1 c #232923",
"2 c #242823",
"3 c #242A24",
"4 c #252A25",
"5 c #272A25",
"6 c #272C25",
"7 c #272C27",
"8 c #292E27",
"9 c #272D28",
"0 c #292C28",
"q c #292E28",
"w c #2C2F2A",
"e c #2C2F2C",
"r c #2B3027",
"t c #2B302A",
"y c #2B312B",
"u c #2C312B",
"i c #2C322C",
"p c #2F342E",
"a c #2F352E",
"s c #30332E",
"d c #30352E",
"f c #30352F",
"g c #32382F",
"h c #303530",
"j c #333631",
"k c #333832",
"l c #343833",
"z c #353A33",
"x c #363A35",
"c c #383B36",
"v c #383C37",
"b c #3A3D38",
"n c #3A4137",
"m c #3D423B",
"M c #40463E",
"N c #42483F",
"B c #424740",
"V c #444941",
/* pixels */
"74>$@+OooooOOO@@$$$$@@@@&qiiqqqqq4>$@Ooo..........              ",
"tq4>$@+OooooooO@@$$@@@@@>qiiqqqqq4>$@OooX...X....               ",
"uq84>$+OoooooooOO+@@+O@$$>4wittqq84>$+OoX..oooo....             ",
"ait81$#+OooOOOOooOOOOOO@$$>4eutqqqq>$@OoooooOOOOooo.            ",
"fait7>#@OOoOO+OOOooooooO@@$&4qqqqqq4:$+OooOO@$@@+OOo..          ",
"faau81$#+oO+@@@+OOOOoooO+@$$>>4q84q8>$@OOOO@$>:$@@+OOo.         ",
"fait81$#+ooO$$$$@@OOOoooOO@#$$=24744>$@+OO@$>>444>$@@Oo.        ",
"haitq4$#+ooO=,244>$@OOooooO+@$$$>,2,>=#@OO@$>48qqq4:$@OOo       ",
"aait71$@+oo@>8quu8,&$@+OooooO+@#$&>>>=$@OO@$148q8q4>>$@+Oo      ",
"aaiq71$@+OO@4wshhiq4,>$@OOoooOO+@$$$&$$@OO@$17qtqqq4<:$@Oo.     ",
"iatq71$#+OO$8ihllhiwq4,=$@OOoooOO+@@$@@+OO@$17qttuieq<>$@Oo     ",
"iit771$$@OO&qflxxlhiuq842>$+OoooooOO+@++OO@$278ttiiiq4>&@Oo     ",
"qttq4>$$@++&8slxvxlhhfiwq4>$@OoooooooOOOOO@$>478tiitq4,>$@Oo    ",
"47774>$$@++$8ixbbcxxxlhsiiq,&OXXoooooooOOO+@$247tiitq74>$@Oo... ",
">1144>$$@O+$4ilvvxllhlhhhsw4>OoooOOOOooooO@@#=127qttq842$@Oooooo",
"$$>11>$$@OO$4ihlxhhfhhhhhsw4>+ooO+@+OOOooO+@@@$=17iqq844>$Oooooo",
"@#$$$$$#@OO$2qfklhffffhfffu4>@OO+$$$$@@OOoO+@+@#$>777872>$@OooOO",
"++@##@@++OO#>7ihhhffffffffu82#++#>,484,$@OOOO@@++@$17872>$@OooO@",
"OOOOOOOoooO@>4qtiaaffffffhfu7$+@&4quiiq4>$@OOOO++++#$>21>=#+OO@$",
"oOOOOooooXO+$>47qtiiaafhkhhi8$@$>8ihllhiq4>$@+OOOO+++#$$$$#@OO@$",
"OOOOOooooooO#$>444quuuiffffu8$+$>8ihlxxlhi8,&$@OOOOOO+@@##@+OO@$",
"+@++OOoooooO+#$;>>1488tuuuut7#+#>4ifxvvcxhiw4>$#+OOOOOOO+@++O+#=",
"#$$##+OoooooO+@#$$$=>288uut71#+@=7uflcvclkffu2=$++OOooOOOO++++#&",
">>>>$$@+OOoooooO+@@##=>27772=#++$7uihlxxlkffi8>$#+OOooOOooOO++#=",
"47874>>$$@OooooooOO++#$=>>==#+O+$4uuakxxlkffiu2>#+++OOOOOOOOOO+$",
"qiiiitq87$#+OOOooooOO++@####++O+#2uuufkllkffii81$#+++++++OOOOO+#",
"ihkllkkfi82=#@++OOoooOOO++@+OOOO#2quuifkkkaiiiq1=#@+@@@#@@++ooO@",
"kcvbvvvclla81$##++OOooOOOOOOOOOO@>78tufassiiiuq4=$@@@@$>2,&@@++@",
"cnnmmmmnnvxfu4>$#@+OOOoooooooooo+$2478uuuiiiiuq4>&$@$&>4qw4,$$@@",
"cmmMNNNMmmbcki84>$#@@+OoooooooooO@==12788qquuq84>:@@$>4qshiq4>$$",
"cmmBBVVBMmmvckfu82>=$@@+O+O+OOoOO+##$=12448qqq44>&$$$,qihlhiqq4>",
"cmmBVVVBBMMmbvlkfiq4,&$@@@@@@OoooO+++#$$=>244844>&$@$4qihhhsiiq7",
"cmmBVVVVBBMmmnvlkfu84>$$$>2=#@+OooOOO++@@$$&>2,,>$$@$4qihhhhfiiq",
"bnmMNBVVVBMMmmnvckfq41$=4ifu82$@OoooOO+++@@#$$&>$@@@$4qiiissfiiq",
"bnmMmMNVVBNMmmmnvchu82==uxvlhi8>$+OOOOOOOO++@@$$@@@@@>4wiiisiiiq",
"cbbnmmMNNNNMmmmmnchiu4>>ibmbvlfu8>$#+OOOooOOO@@@@@@+@>4qqwiiiiiq",
"xxxvvmmMMMMmmmmmbxffu422fmmmmvlhfu7>$@+OOOoooO+++OOO+$>44qqquiiq",
"uklllvnmmmmmmmmmbxkfu727fmMMmmmvkau82$#@OOOoooO++OOO+@$>>444qqqq",
"17ukfgklcvbnmmmmnckfi827fmMBMMMmvlfu81$$@@OOOOOOOOOOOO@$&>>>4488",
">>278uuifkllcvnnbvlfi848hmBBBBMmmnvft7>=$@@@+++@OOOoOO+@$$&>>>24",
"=====28ruiiffklvvlkhfq7qfnMMMMMMmmblaq4>$@@##$$$#@+OOOOO@@$$$$$>",
"=$=====247788tallfffiu88avmmmmmmmmnvlaq4>$@#$>44>$$#+OOoOOO+@@@@",
"82===###$==>14qifuuuu748ulbnmmmmmmnbcku84$$$>4qiiuq2=$@OooOOOO+@",
"fu82====$##$$=2227871==>8flvbbnnnnnvchtq7>$$17ihkkhu7,=$OOOOooO+",
"ckat822==#+++#$$$$==###=2uflvvlvvvvvxftq74>>4thxccxhiw8,$@+OOooo",
"nvlgau82=##+++#########=>7ufllklllclkfuqq7419axbbbblhai84$@+OOOO",
"mnvlgfu82=$##########+#$=>7ufffgklllkautq74>qhxbmmbvxkau8>#++OOO",
"mmnvlfuu71=############$$=17uuuiffffffitq744qhxbmmbbvxkfu2$@++++",
"mnnvllau72==$$=121>$####$##=12247qquiuuuq748thxbmmbnbclkat2#++++",
"mmnvllau2211278ufuq7>=$$$######$>124888772278flvnmnnnvclfu7$#@@#",
"mmnvllau72227ufcvlkfu871=$###@@##$$=1111===28ikcbbbnnnvcgu8>###$",
"mnnvllau72228uvmmnvvlkfu7>$$#######$=====$=14uklvvvvvvcxkiq1$##=",
"mnvvllar74428unMBmmmnvvkft71==$############==7ukxcccccllkat7=$$1",
"nnvvllar72424uvMBMmmmmnvclfu84>$############$=18ihkkkkkkkat7=#;4",
"nvlllkur22212icMBMMMmmmmnbvlhu4>===$$#######$$=>2qiaaaaaaat7>$>7",
"cllllgu8222>2ulmMMMMMmmmmmbvlfq2===12==#######===>47tttttt74;$>7",
"lllllfu8221=>ukmMMMMMMMMMmmbvhq4>=27qt872=####$$$=>27717771;$$;7",
"lkkkkfu8221>1ukmMMMMMmMMMMmbvhq4228tahhfu82>=$#$$$$$$$$111;$$$$1",
"fkkhhat7421=1ukmMMMmmmmmmmnbvfq777uukxcxllhau7>==$#O++########$;",
"uaaaai87421=2tkmMMMmmmmmmmnbvfq747ukxbmmmnbvlhu82>$++++++++++@#$",
"47qqtq44221>2tfvmmmmmmmmmmnbvfq747ulnmMMMmmmbvlft71#########++@#",
"=144741111>>1qulbbbbnmmmmmnbvfq727ulnmMBBMMmnnvlaut$$$########@#",
"$$>>>>>>=>>>>88flccccbnmmmnbvf8728ulnMVBBBMMmnvlkfa>$$$$$;;;$$$#",
"$$$$;;;;$$;>>148ufkkkxxcbvcxka8428ilbmVBBBBBMmvvllu1$$$17tt97>$#"
};
