/* XPM */
static const char *wall_inner_left[] = {
/* columns rows colors chars-per-pixel */
"64 64 99 2 ",
"   c #0E140D",
".  c #0F1A0D",
"X  c #10160E",
"o  c #11190F",
"O  c #121610",
"+  c #151C13",
"@  c #181E16",
"#  c #191F18",
"$  c #172115",
"%  c #1A2316",
"&  c #1C2917",
"*  c #172018",
"=  c #1C251A",
"-  c #1E291B",
";  c #1E311D",
":  c #202717",
">  c #20271E",
",  c #212B1D",
"<  c #23321E",
"1  c #212620",
"2  c #242B21",
"3  c #242B22",
"4  c #222C22",
"5  c #242D22",
"6  c #252B24",
"7  c #252E24",
"8  c #282F26",
"9  c #282F28",
"0  c #243021",
"q  c #263122",
"w  c #253322",
"e  c #253024",
"r  c #273025",
"t  c #283324",
"y  c #283226",
"u  c #2A3527",
"i  c #263926",
"p  c #2A3926",
"a  c #2A3328",
"s  c #2B322B",
"d  c #2C322A",
"f  c #2A3528",
"g  c #2C3529",
"h  c #2C3728",
"j  c #2E352D",
"k  c #2E392A",
"l  c #2D3B2A",
"z  c #2E382C",
"x  c #2F3D2C",
"c  c #30372D",
"v  c #303B2C",
"b  c #333D2E",
"n  c #323F2F",
"m  c #2F3630",
"M  c #2F3E30",
"N  c #323D31",
"B  c #343D31",
"V  c #343F32",
"C  c #2F412E",
"Z  c #32412E",
"A  c #334030",
"S  c #364132",
"D  c #354332",
"F  c #364633",
"G  c #354135",
"H  c #374534",
"J  c #374634",
"K  c #394535",
"L  c #394737",
"P  c #3A4637",
"I  c #364936",
"U  c #384835",
"Y  c #3B4A36",
"T  c #374638",
"R  c #3B4639",
"E  c #374939",
"W  c #3D4A3A",
"Q  c #3E513C",
"!  c #414E3D",
"~  c #43523E",
"^  c #47593F",
"/  c #495A3E",
"(  c #3F4E40",
")  c #434E41",
"_  c #455341",
"`  c #495644",
"'  c #475944",
"]  c #4B5A45",
"[  c #485749",
"{  c #4D5C4A",
"}  c #505F47",
"|  c #515E4B",
" . c #4F5E50",
".. c #4F6147",
"X. c #4F6049",
"o. c #53624C",
"O. c #556351",
"+. c #586653",
"@. c #5C6A55",
/* pixels */
"> = = $ + O . . . X . X O O O @ @ @ @ @ + + + @ = 2 6 6 2 2 2 2 K N z u 4 - % $ + + O + + o o . o o X .             O X         ",
"2 > = = $ + O . . . .   . X O + + @ @ + + O + @ = 2 6 6 2 2 2 2 K A z f 5 - % $ + O + + + + o o o X . .                         ",
"5 2 > = = @ + o . . X X X X X X O + + + O O O @ # = > 2 2 2 2 2 K J A k e > = $ + + + @ $ $ $ + + O O O               .         ",
"e 5 > > = $ + o o . X X X O X X X O O O O X O + @ # = = 2 2 2 2 K K K v u 4 - $ $ @ @ = - - - = $ $ @ + O         .   .         ",
"e 7 5 2 - = @ + o . X O O O O O X X X . . . . O + @ @ = = 2 2 2 K K K B k e , = = = = = 5 e e 4 > > = @ + O X X                 ",
"e e 7 4 > = $ + O . X O + + + O O O X X . . . O O + @ @ = = = > J S K S z u 4 - = = = 5 a g g u e 4 6 1 = # + O X               ",
"e 7 7 4 > = $ + O . . O @ # # @ @ + O O X . . . X O + @ @ @ = = S S S B b u q , - - > y z b N B N z d 8 2 = @ + O               ",
"e 7 7 2 > = $ @ O .   O = = = = = = @ + O X . .   . . O + @ @ @ k b b b v g q , - - 4 f v b F K K K N j d 6 > = + O X           ",
"7 7 7 2 - = $ @ O . . + = > 2 2 2 > = = @ + O X . . . . X O + @ u u k k k g y 4 - - 5 u x S F Y J K S N m a 9 6 = # O .         ",
"7 7 7 2 - = $ @ O X X @ = 2 7 y y 7 2 > = = @ + O X . . . X X O , q u u u u q , - - 5 u b S J Y Y K K B N j a 9 1 = + O         ",
"7 7 2 2 - = $ @ O o X @ > 7 y d a 8 5 2 > = = = @ + O X . . . X - , , q u q , > - - 5 u b S J Y R W W R S N j a 2 = @ X         ",
"7 7 2 - = = $ @ O o O $ > 8 a d d a 8 7 2 2 > = = = @ O X . .   $ % - - , , > > - - 5 u b S F Y R W W W K B v f 7 = $ O .       ",
"2 2 2 > = = $ @ + O O $ > 7 d g j d a a 8 8 2 2 2 > = @ + X .   $ % % % % % - - - - 4 e k A A F R R W R K S b z y 2 = @ O O O X ",
"= - - - = = $ @ + O O @ > 7 g c c g d d d a 8 7 7 2 > = $ o     $ $ $ $ % % % % = - > 4 u b Z F Y R R R J J A x u 4 - $ + + + + ",
"= = = = = = $ @ + O O $ > 7 a j j d a a a a a a y 7 2 = = O     % % - = % % % % % - 4 , q p x Z F K R R J J A b f 5 - = @ @ + + ",
"@ * = = = = $ @ + o o @ = 2 y d d a 8 8 8 y y y y 8 2 = = O . . - , , , - - - % = = > 4 < < p p x F R J J J S N g e - = @ # # = ",
"+ + @ = $ $ @ @ + o o @ = 2 8 a a y 7 7 7 8 y y 8 8 2 = = + X o , q u y q q , - = % - , q , < q p x F A S J Z b k u , = = = = > ",
"O O O + + + O O O o o + = > 5 y y y 7 7 7 e y e y 8 5 > = @ o O q k b B S S b u , - = - - , , , , q p x Z S Z b k u q - = = > 5 ",
"o o o o o X o . . . o + = = 2 2 7 7 7 7 7 e y y y y e 2 - @ O + u b K W ! W K S k u q - - - - > - , , < u k Z v k p q > = = 4 e ",
". . . X . . . .     . O $ = = = > 2 5 5 5 5 e y y y y 5 > $ + @ v S W ) ` ` _ ! K B k y 5 > - = - - - - , < y u u u q 4 - - 4 y ",
"o o o o X . . . .   . o + = = = = > > 2 2 5 5 7 y e e 5 > @ O @ k S W ) ` ` ` ` _ ! K b u y , - - % & - & , , < q q 4 > - - , u ",
"O O O O X . . . . .   . O @ $ = = = = = > > > 5 5 5 5 4 - @ O + k S W ! ` { { { ` _ ! K S v u q , - & % & & & - , , , > - , q p ",
"@ @ @ @ + O X .   . . . . O O + @ @ $ $ = = > > 2 2 > - = + o + p S W ! ` ] ] ' ` _ ~ ! W Z p q , - & % % % & = - - > > > , q u ",
"= = = = $ @ + O o . . . . . . X O + + + + $ = = > = = = $ + o O u S Y ! ~ ` ' ' ` _ ~ ! W F x u < , : & % % & & & & , , , , < u ",
"= > > > = = = = @ O o . . . .   . o o o + + @ $ = = = $ + O o o q Z Y W ! _ ' ' ` _ ~ ! W Y Z p q , , , : , , , = & = & & & , y ",
"> 5 5 5 5 2 > > = $ @ O o . . . . . . . o o O + + @ @ + O o o o q Z Y Y W ~ _ ` ` _ ! ! W W F x u < , , , , , , , , = = % & , q ",
"7 y a a y y y y 5 > = $ @ + O O X . . . . X o O O + + + o o o o q v K Y Y W ~ _ _ ~ ! ! W W K b k e , , , , e e 5 5 > , % % - 5 ",
"a g j z g k k g f y 5 > = $ + + o o o X X X X O O X X X X X X X , k S J Y W ! ! ! ! ! ! W W K N k y 5 > , , y k b b u 4 , - - 4 ",
"f z v b b b b v v c g y 2 = = $ + O O O O X X X X X X X X X . X , y b Z S J Y W W W W W W R K N v g y 5 e g v b K R S v f e 4 4 ",
"f v N B S S S b b v c g y 5 > = = @ + + + + X X X X X X X . . . & , p p x b Z F K K K W W K K B v g y 5 y v B K ! _ ! K A z f e ",
"f v B S S K K S B B v g g y e 5 > = = $ @ + + O o o X X o X . X % , q q y p x b B S K K K K K B v g y y u b K W _ ` _ ! K J N z ",
"g N N S K K K S S B B b v g u y q 5 > > = @ @ + + + + + + X   . % - , , , < q u g k b B S S B B v g y y u B K ! ) _ _ ! ! W K S ",
"g v N S K K K K S S B N b v g f y y 5 > > = @ @ @ = = $ + + o . % % % & & - , , q y u u k b v v k y e 5 g S K W ) ) ) ) ) ( W K ",
"j v N B S K K K K S B B N b v g g y 8 > > = $ $ = 5 y 5 > = $ + - % $ % & - , , , , q q u u g g y 5 5 q u B K W ! ! ) ) ) ! W K ",
"j v v B B B S S S S B B N N N v k g y 5 > = $ $ 2 g c g y 8 > = y , - & % & - - - - , , , , y y 5 5 5 5 y v S R W W ! ) ! W W K ",
"g j z v b b b S S S B B b b b b k g y 5 2 = = = 5 c v c g d 8 5 S k y < , & % & % % % - - , 5 5 > > > > 5 g B K K R W W W W W K ",
"f f f g k b b b B B B B B N b b k f y 7 5 > = = 8 v B N v c d y ! Y S v y < - - = = = % % = 2 2 > > - > > e z N S S K K R W W K ",
"5 y u u g g v v v N N B B N N N v g y e 5 - = = 7 v B B B B v g ^ ! Y J b u q , - - = % $ $ = > > - = > > 5 u k v N B S K K K K ",
"= > 5 y y y y u g g v v v v v N v g y y 5 > = - y v B B B B B b } ` ~ Y J b f e 4 2 - - - = = > > - - - - - 5 e f g z v b S S K ",
"= % = - > , 5 5 q y y y g g j v v g y y 5 > - > y N B B B B B B o.| ] ! R S z f e 4 4 4 - - - 2 - - = % = - > 4 e f f g k k b N ",
"$ $ $ $ % & , > 5 5 5 8 y y d g g a y y 7 > - > y v B B B B B B o.o.| ` ! K A x f 4 4 q q e i u q , - = & - > - 4 q e e e u u k ",
"% $ $ $ $ $ $ & = = > > > > 5 y y y e 7 5 2 > > 5 g v N v b b b o.o.o.{ ` ! K Z z i q i p p A A x p q < , - = = = - - > , 5 5 q ",
"> = % $ $ $ $ $ $ $ $ = = = > 5 7 5 5 5 2 > = > 5 a j v v v b b o.o.o.{ [ _ W F A p i u k A J W W R J b p q , - % % = - - - , , ",
"y 5 > = & & % $ $ + + $ $ $ = = = - > > = $ $ = > e a g v k k v ....o.{ ' ~ Y J A x i p x A W _ ` ` _ W S b f e - & & = % % % , ",
"g y 8 , , = & & $ + + + + + $ $ $ $ $ $ $ + $ $ = 5 e f g g g g ] ] ] ] ' ~ Y J J A k x G R _ [ [ [ [ _ ! R S b f 4 - - % % % % ",
"v g g y 5 , , = % $ + O o + + + + $ $ $ + + + $ = - 2 e y y u u / ] ] ] _ ~ W Y J G M x J ( [ { { { { ` _ ! W J N i , - - - % & ",
"b v g g y q , > - $ $ $ + + + + + $ + + + + + $ $ = = 2 y y q e ^ ^ ] ' ~ ~ W R J G N x T _ [  .O.O.| { ' _ ! W J k q , , - - - ",
"B v v g u e 5 , - = $ $ + + + + @ + + + + + + @ $ $ = = > 5 5 5 ~ ~ ~ ~ ~ ~ W Y J S A A K _ [  .O.O.| { { ' _ ! Y Z u < , - - , ",
"b v v g u y 5 , , = & $ $ $ $ = = = = $ + + + + @ @ $ $ = = = = F J K Y W W Y Y Y S Z F Y ~ ' | o.o.{ X.{ ' _ ^ ~ Y v q < , - < ",
"b v k g g y 5 , > = = % = , > 5 q 5 > > = $ $ $ $ + + + @ @ $ $ k b b Z F F F S Z Z Z Z J ! ` { | o.o.o.X.] ] ] ~ Y F p < < < < ",
"b v k g g y 5 , , = = = - , y g g g y 8 5 > = = $ $ + + + + + + q u u p x x x x x k x b F W _ ' { | { o.o.X.] ] ~ Y F x < < < p ",
"b v v g g y 5 , , - = = , 5 v v b v g g g y 7 2 = = $ @ + @ @ + < q q q p p p p p u p v Z Y _ ` { { ] ] { ] ' ' ^ W I x q q q x ",
"b v v v g y 5 , - = = = > 5 v B B B v v v c g y 7 > = = $ = $ @ < < < < < < q < q q q p x S W _ ' ] ' ] ] ' ' ' _ ~ R A p q p Z ",
"v v k k g y 5 , - = = = > 5 g B K B B N v v v g g a y 5 > = = $ q q q q < < < < < < q q y p x F W ~ ^ ~ ~ ~ ~ _ _ ~ R F p q p A ",
"k g g g g y 5 > = = = = = 5 g B S B B B B B N v v j g f y 2 = = p p p u u q < < < < < < q y p x Z Y W W W W Q Q Q W E A p i k A ",
"g u g g g e , > = = = & = 5 u B B B B B B B B N N v v g f 7 2 = p k k x v x p y < < < < q y p p p x Z F I I I I Y I F C i i x A ",
"u u u g y y 5 > = = = $ = , y v B B B B B B B B B B v v j y 2 = x p v Z K Y J S v p q < < q q q y p k C S C C C S S x k i i x A ",
"u y y y y 7 5 > = = = $ = , y v B B B B B B B B N N v v k y > - v Z F Y ! ~ ~ ~ W J Z x p y q y p y q q i i i k C k k i i i p M ",
"e e y e e 7 4 - - = = = = 2 y v B B B B B N N N N b v z k y > > Z S Y W _ ' ' ' ` _ ~ ! Y S x p p u < & - ; ; q q q q q q e i p ",
"4 5 5 5 7 4 > - = = = = = > y v B B B B B B N N N b v z k e > = Z S Y _ ' { o.o.o.| { { ` ~ W F Z k q - - - ; - ; ; - - - , q p ",
"= - > > 2 > = = = = = = = > y v b b b B N B B B N b v z g e > = Z F W ` { o.+.+.+.+.O.o.| { ` ~ Y F C q ; < ; ; q q q ; - - ; q ",
"= = = = = = = = = = = = = 2 5 f v v c v v N B B N N v z g e > = Z S W ` | +.@.@.@.@.+.o.| | ] ` ~ W Y i q q q q i i q q q q q q ",
"@ $ = = = = = = = = = = = = > e f g g g g z v N N N v j g e > = Z F W ` | +.@.@.@.@.@.+.o.o.] ] _ ^ Q p i q i i i k k k i i q q ",
"@ @ * = = = = = = = = = = = = > 5 7 y y a f f g j g g f a 7 > = Z F W ` | +.@.@.@.@.@.@.@.o.} ] ] ' Y k p i k C S I E I S x i i "
};
