/* XPM */
static const char *wall_inner_right[] = {
/* columns rows colors chars-per-pixel */
"64 64 107 2 ",
"   c #070A07",
".  c #080B07",
"X  c #0A0D09",
"o  c #0E130C",
"O  c #0F1A0E",
"+  c #10160E",
"@  c #12190F",
"#  c #121611",
"$  c #141B12",
"%  c #181E16",
"&  c #1A1E19",
"*  c #162214",
"=  c #192316",
"-  c #1B2917",
";  c #1C241A",
":  c #1E291B",
">  c #21271E",
",  c #212B1E",
"<  c #24321E",
"1  c #28371F",
"2  c #1F2A20",
"3  c #212621",
"4  c #242C22",
"5  c #282F26",
"6  c #243222",
"7  c #263322",
"8  c #263423",
"9  c #273724",
"0  c #283324",
"q  c #293425",
"w  c #283625",
"e  c #283727",
"r  c #283826",
"t  c #2C3A25",
"y  c #273329",
"u  c #2A3428",
"i  c #2A3429",
"p  c #2B3629",
"a  c #2C3729",
"s  c #2C352A",
"d  c #2C372A",
"f  c #2B3B28",
"g  c #2C3B29",
"h  c #2D382B",
"j  c #2E3B2B",
"k  c #2E392C",
"l  c #2F3F2C",
"z  c #303F26",
"x  c #313C2C",
"c  c #303C2D",
"v  c #313C2E",
"b  c #2F3830",
"n  c #333E31",
"m  c #333F31",
"M  c #343D31",
"N  c #343F32",
"B  c #33412D",
"V  c #30402E",
"C  c #38472F",
"Z  c #334030",
"A  c #364333",
"S  c #364633",
"D  c #364134",
"F  c #374534",
"G  c #384336",
"H  c #384535",
"J  c #394634",
"K  c #394936",
"L  c #3C4A35",
"P  c #3A4538",
"I  c #3C4738",
"U  c #3B4838",
"Y  c #3C4B39",
"T  c #3E4B3A",
"R  c #3C4C39",
"E  c #3F4A3D",
"W  c #3E4D3D",
"Q  c #3F503C",
"!  c #404F37",
"~  c #414E3D",
"^  c #40503D",
"/  c #44523D",
"(  c #48573F",
")  c #47583C",
"_  c #444F40",
"`  c #415040",
"'  c #465341",
"]  c #495544",
"[  c #475842",
"{  c #4B5A45",
"}  c #4C5748",
"|  c #4E5C49",
" . c #505F47",
".. c #515E4B",
"X. c #4F6047",
"o. c #4F6048",
"O. c #506146",
"+. c #53634D",
"@. c #58694F",
"#. c #566551",
"$. c #596753",
"%. c #576850",
"&. c #5B6A54",
"*. c #5F7056",
"=. c #5F7058",
"-. c #607157",
";. c #617258",
/* pixels */
"A Z j w 6 : - - * ; ; - ; : , 6 0 0 6 6 4 4 4 4 u H E E P P P P 3 ; ; % $ # o o o o o o o o o X X X X X . . . . X X X X X X . . ",
"U H A c w 6 : - - ; * ; ; ; ; 4 5 0 0 6 4 , 4 4 a G E E P H H H 4 ; ; & $ $ o o o o o o o o X o X X X . . . . . . . . . . . . . ",
"Y K F Z j 8 , - - * ; ; ; ; ; ; ; 4 5 4 , : , 6 u k A I Y U K H , , ; ; $ $ + o o X o o o o o o X X X X . . . . . . X X . . . . ",
"Q R K S l 9 < : : - ; ; ; ; ; ; ; ; ; : : ; ; 4 0 u a m I Y U H 4 4 , ; % $ $ o o o o + $ $ $ + o o o X X X X X X X X X . . . . ",
"^ W R K S f 8 < : - - ; , , , ; ; ; ; - - * * : 4 6 0 u m H H H , , 4 ; ; $ $ + o o + # $ $ $ $ $ # # o X X X X X X X X . . . . ",
"^ ^ W U S l 9 6 : - ; , 4 4 4 , > ; ; - - * * ; , 4 6 0 j c V H , : , > ; % $ $ # # # $ & ; ; % $ $ $ # # o X X X X X X . . . . ",
"^ W W U F V r 6 , - * : 6 u u 0 6 4 : : - * * - ; : , 6 0 w j c > > > ; ; % $ $ # # $ % ; ; ; ; ; ; & % $ # o X X X X X . . . . ",
"` W W U F c w 6 , - * : a c c m m k w 4 : - - * * - ; , 4 6 0 w ; ; ; ; ; ; $ $ # # $ & ; ; , 4 4 3 ; & & $ # # o X X X . . . . ",
"W ^ W U F l 9 6 , - * 4 c D H Y Y D c a 6 , : - - - * * ; , 4 6 % * ; ; ; ; % $ $ $ $ % ; ; , , 4 4 2 ; ; & & $ # o X X . . . . ",
"~ ~ W H F l 9 6 , ; ; 6 m I ~ ' ' ~ H A c j 6 , : - - * - - ; , $ $ % % * % $ $ $ $ $ % ; , , 4 4 4 4 3 ; & & % # # X X X X . . ",
"W W U F A l 9 6 , : ; 0 A ~ ' ] ] _ Y I H A c a 0 6 : ; - - - - @ $ $ $ % $ $ $ $ $ $ % ; , , 4 4 4 5 4 3 ; ; & $ # o X X X X   ",
"W W U A Z l 9 6 , : : w H ~ ] ] ] ] _ ~ Y H G m c j 6 , ; - - * o o @ $ $ $ $ $ $ $ $ * ; ; , , 4 4 5 4 4 ; ; & $ # o X X X X   ",
"F U U F Z l 9 6 , , , w H ~ ] } } ] ] ' _ ~ Y I H A c w , - * * o o o o o + @ @ $ $ $ $ ; ; : , 4 4 4 4 4 ; ; ; % $ + o X X X X ",
"Z A F A Z f 9 6 6 , , w A ~ ] ....} ] ] ] ] ' ~ ~ Y H c w : $ $ o o o o o o o + + $ $ $ % ; ; : 4 4 4 4 4 : ; ; % $ # o X X X X ",
"j l l Z l f 9 9 , : , w A ~ ] } } ] ] ] ' ] ' ' ' ~ I c j : * * o + + + + o o o o # $ $ $ ; - ; ; , 4 4 4 : ; ; ; $ $ o X o X o ",
"9 f f l l f 9 9 , : : 0 m Y ' ] } ' _ _ _ ' ' ' ' ~ I m j , * - @ $ $ $ $ @ + o o o $ $ $ $ * * ; ; 4 4 , , ; ; ; $ $ + o o o + ",
", 6 9 f w w 9 6 , : : 6 c H ~ ' ] ' ~ ~ ~ ~ ' / ~ ~ Y A j 4 ; : $ $ % % $ $ $ $ + o + $ $ $ $ $ * ; : ; , , ; ; ; % $ + o o # # ",
": : , 6 6 6 , , : : : 6 l A Y ` ' ` ~ ~ ~ ^ ^ ^ ^ ~ Y S c 6 : , $ ; ; ; > ; ; % $ @ + + $ $ $ $ $ $ * ; ; , : ; ; * $ $ + o # $ ",
"- - - : : : - - - - : 6 j Z H P ~ ~ ~ ~ ~ ^ ^ ^ ^ / ^ L A 0 , 6 * ; , 4 5 4 4 > ; % $ $ @ @ $ $ $ $ $ $ * ; ; ; ; ; $ $ + + $ $ ",
"- - - - - - * * * * - , w l A A H U Y R ~ ~ ^ / ' / / ~ S w , 0 ; > 4 5 u u u 5 , ; ; % $ $ @ + @ @ @ @ $ $ * * * * $ $ $ $ $ % ",
": : : : : - - * * * - : 6 f j c c A H K K L R ~ ^ ^ ~ L S 6 , 0 ; > 4 5 u u u u 0 5 > ; % % $ @ + + @ @ @ @ $ $ $ $ $ $ $ $ $ % ",
": , , : - - - * * * * - , 6 w j j j c V S H K Y R R R K A 6 : 6 ; > 4 5 u k k a u 0 5 4 ; ; * $ $ @ + + + + @ @ $ $ $ $ $ $ $ ; ",
"6 w 9 6 6 , : - * * * - - : , 6 6 w w r j V S H K K K A j < : < * > 4 5 0 a a a u 0 6 5 4 ; * $ $ @ @ o o + + + + $ $ $ $ $ $ * ",
"j l l j w 9 6 , : - - * - - - - : , 4 < 8 r j V V V V c r < : , * > 4 4 0 u a a u 0 5 5 4 , - * $ @ @ + + + + + + + @ # @ @ $ * ",
"c A F A c j j u 6 , : - - * * * - - : : , < 0 r j j j r 8 , - , $ ; 4 4 4 0 a a u 0 6 4 4 4 ; * $ $ @ @ + @ @ @ + + + + + @ $ % ",
"H Y Y R Y K H S A w 6 , : - - - - - - - - : , < 6 6 0 6 , : - : $ ; 4 4 4 5 0 u u 0 5 5 4 4 , ; * $ $ $ $ $ $ $ # @ + + + + @ $ ",
"W ' ' ] ' ' ' ^ R F c r 6 , , : : - - - - - : > , , , , : - - : $ ; , 4 4 4 0 0 0 0 5 5 4 4 4 ; ; % $ $ $ $ % % $ $ $ # + o @ $ ",
"' | | | | | | { [ ' ~ S j 0 6 < : : : - - ; ; > , ; ; ; ; - - : $ ; > , , 4 0 5 5 5 5 5 5 4 4 ; ; % $ $ $ $ % ; ; ; % $ $ $ $ $ ",
"{ | +.+.+.+.+.O.O.| ] ^ L V j 0 < , , : > ; - - ; * * * - - - - $ % ; ; : , 4 4 4 4 5 5 4 4 4 ; ; & % $ % & ; ; 4 4 ; ; ; $ $ $ ",
"{ +.#.&.&.&.&.@.+.+.| { / R H V j 8 6 4 4 , ; - = - = = - - - - + $ * * ; ; ; > , 4 4 4 4 4 > ; ; ; % $ % ; ; 4 5 5 5 4 ; ; = $ ",
"{ +.#.&.&.*.*.&.&.#.+.| { ( / Y H V j a w 4 , > > > > > > - * - + $ $ $ * * ; ; ; > > , > > > ; ; & % % % ; 3 4 5 u 0 5 4 4 ; ; ",
"{ #.#.&.=.;.;.&.&.&.$.+...| [ ' / R H m c a 0 4 4 , , , , ; * - o @ $ $ $ $ $ % ; ; ; ; ; > > ; ; & % % % ; 3 4 5 u 0 5 5 5 4 ; ",
"| +.#.&.&.-.;.-.&.&.&.#.+.+.| [ ' ^ Y H A j 0 0 w j c w 6 , : - o o + @ @ @ $ $ $ % % * ; ; ; ; ; % $ $ % ; 4 5 5 5 5 5 5 5 4 4 ",
"| +.#.&.&.&.*.-.=.&.&.#.#.+.+.| { ' ~ H A c 0 j V ~ ^ Y H c w < @ o o o + @ @ $ $ $ $ $ % % & ; % $ $ $ % ; 4 5 5 5 5 5 5 5 4 4 ",
"| o.+.&.%.@.&.&.&.&.&.%.#.#.#.O.| { / Y H c j j L ] } ] ' ~ A c % @ @ @ o + @ @ $ $ $ $ $ $ % % $ $ $ $ % ; > 4 4 4 5 5 5 5 4 4 ",
"{ | | +.+.+.@.&.&.&.&.%.+.+.+.+.o.[ / ~ L V j j Y ..+...{ [ ~ Y , * % $ @ @ + @ + o + + $ $ $ $ $ $ $ $ $ ; ; 4 4 4 4 4 4 4 4 4 ",
"] { { | | +.+.@.&.&.&.#.#.#.+.+.| { / ~ Y A c c ~ ..$.#...} ] ' 5 4 > ; % $ @ @ # + o o o + $ $ # # # $ $ $ ; ; ; > 4 4 4 4 4 4 ",
"L ( [ [ [ | O.O.+.#.#.#.#.#.#.#...{ ' ^ L A c V ~ +.$.$.#.#.+.| 0 4 4 , ; * $ $ $ # + o o o # # $ # # $ $ $ % ; ; ; ; > > 4 4 4 ",
"j V Y ( / ( ( [ { | ....+.+.+.#...{ ' ^ R S V A / +.&.&.$.$.$.+.c 0 6 4 > ; ; $ $ $ $ $ # # # $ $ $ $ + $ $ $ $ ; ; ; ; ; > > > ",
"j j c V S Y Y ! / ' ' ' { | | +...{ ' ^ R H V S / #.&.&.&.&.&.$.c c a 5 4 , ; ; $ $ $ $ $ $ $ $ $ $ + o + $ $ $ $ & & ; ; ; ; ; ",
"j t j j t B V S L R R ~ ^ ' [ { { [ ' / ~ H A H ^ ..$.$.$.$.$.$.c c c u 5 4 ; ; ; $ $ $ $ $ $ & $ $ $ + @ $ # $ $ $ $ $ $ % % ; ",
"j t j j t t t V V V V S S K ~ ' [ / ^ ~ R K S H ~ { +.#.+.+.+.+.c c c a u 4 , ; ; $ $ $ ; ; ; ; ; * $ $ $ $ # o + $ $ $ $ $ $ $ ",
"H V j j t 1 < < 0 r j j j V H R ~ R L L K A V S L [ | +.O.O.+.+.c c c k a 0 4 , ; ; $ * ; ; 4 5 4 4 , ; * $ $ + o o + $ @ @ $ $ ",
"/ Y B V z t t t 0 6 8 0 w j c c V A S V c r r j S ^ [ | ..| X.O.j j c j a 0 4 , ; - $ ; ; ; 5 u u u 6 4 , ; ; $ $ + @ + o o + $ ",
"{ ( ~ S V V V j j < , , , < 8 0 w w r r 0 8 0 j c L ^ ] { | { { a j j a u 6 4 , 2 ; ; ; ; 4 y u k k u 0 5 4 > ; ; $ $ $ + o o o ",
"..{ [ ^ ! L V B j 8 < , : , < < < 8 8 8 6 < 6 r j A K ^ [ ( ( ) w a a w 0 6 4 4 , 2 ; ; 2 5 u k k k k u 0 5 4 , ; $ $ $ $ @ + + ",
"+...| [ / ! L S V j r 8 8 < 6 6 6 8 8 6 < < < 0 r j V K / ^ / / w w w w 0 6 4 4 4 : ; ; 4 y u b M M c a a 0 5 4 , ; $ $ $ $ @ @ ",
"#.O...{ ( / Y K V c j 0 < < < 8 8 < 6 6 < < < 8 w r j V K L Y R 0 6 0 0 0 6 4 4 4 ; ; ; 4 u a k M M k k a a 0 5 4 ; * $ $ @ @ $ ",
"+.O.O.| [ ( ! S B c j t 0 t j c B c j w 8 6 6 8 8 8 0 j j c c A , , , 4 4 4 4 4 , , , , 4 0 a c c c k k k a 0 0 4 , ; $ $ $ @ $ ",
"+.O.O.| [ ( ! S V c j j V V H Y / L H V j j w 0 0 8 6 8 8 8 8 w ; ; ; ; , , , , , ; ; > , 5 u a c c c c k j a a 6 4 : * $ $ $ $ ",
"+.O.o.| [ ( ! S B B c c V L ( { { [ / ~ L H V j j 0 6 < < < 6 6 $ % * * ; ; ; ; ; ; ; ; , 4 0 a k k a j c j a a 0 4 , - $ $ $ * ",
"+.O.O.| [ ( ! S B B B B V Y ..+.+.O.{ { { ' ~ K V j w 8 8 6 6 6 $ $ $ $ * * * * * * * ; ; 4 0 u a a a a j a a u 0 4 , ; $ $ * - ",
"+.O. .| { ( ! L B B B B S ~ O.&.&.#.+.+...| { ' ~ K V j j j w 6 $ $ $ $ $ $ $ $ $ $ $ * ; , 4 0 a a a u u u u u 0 6 4 : ; $ ; ; ",
"O.X.| { [ ( ! L B B V B V R | &.&.$.#.#.+.+...} { [ ^ Y S V c w % $ $ $ $ $ $ $ $ $ $ $ * * ; , 4 0 0 6 6 6 6 6 6 6 4 : ; $ ; ; ",
"| | [ [ ( ( ! S V V V c V R { &.&.&.$.$.#.#.#.+...| { ] / K A j * * * * * $ $ $ $ $ $ $ % * * - ; 4 4 4 4 4 6 6 6 4 4 ; ; $ ; ; ",
"[ [ [ [ ( / Y C V V V j c L [ #.&.$.$.$.$.#.#.#.#.+...} { ~ H c * ; - ; ; ; * * $ $ $ $ % * * * ; - ; : , , , 4 4 4 2 ; ; * - : ",
"[ [ [ [ [ ^ Y H V c c j j L ( +.&.$.$.$.$.$.$.$.#.#.+...} ` H A ; ; ; , 4 , , ; ; * $ $ $ $ % $ * * ; ; : : - : : : - ; = = - : ",
"[ ' ' ' ' ^ L S V V j j j L ( +.&.$.$.$.$.#.#.#.#.#.+...| ^ H V ; ; , , 4 0 0 5 4 , ; ; * % $ * * * $ * * * * - - - = * $ * = ; ",
"^ ' ' ^ ` Q K S V V j j j K ( +.&.$.$.#.#.#.#.#.#.+.+.| | ^ H V ; : 4 4 0 u a u u 0 0 4 4 > ; * * * $ O O $ $ $ $ $ $ $ $ $ ; ; ",
"R R R R W R F S V V j j c K ' +.&.$.$.#.#.#.#.#.#.+.+.| | ^ H V ; , 4 0 u k c c c c k a u 0 4 , ; ; * @ O O $ @ $ $ $ $ $ $ $ ; ",
"V S F K K K V V V V j j c K ^ ..+.+.+.#.#.#.#.#.#.+.+.| | ^ H V ; : 4 u k M m m m m M c k a u 5 4 : - $ $ $ $ $ $ $ $ $ $ $ $ $ ",
"f j V V Z V j j j j j j c H L [ ....| | +.#.#.#.#.#.+.| | ^ H V ; : 4 u c m m m m m m c c c a 0 5 4 4 * * * * * * * * $ $ $ $ $ ",
"9 r f f k k f f f j j j j F H ^ ] { { { | | +.#.#.#.+.| | ^ S V ; , 4 u c m M M D D m m c c j a 0 0 6 - * * * * = = = = = $ $ $ ",
"9 9 w u a f a u w f f f a l Z H L ~ ' ' ' { { | | | | { ' W S V ; , 4 u c m A m A A D M m c c a w w 4 - * * - - : 4 4 2 : - = $ "
};
