/* XPM */
static const char *wall_outer_right[] = {
/* columns rows colors chars-per-pixel */
"64 64 104 2 ",
"   c #0E130D",
".  c #0F1A0D",
"X  c #10150F",
"o  c #111B0E",
"O  c #111610",
"+  c #141D12",
"@  c #181E16",
"#  c #1A1F18",
"$  c #162114",
"%  c #192316",
"&  c #1C2917",
"*  c #1C2519",
"=  c #1E291B",
"-  c #1E311D",
";  c #202717",
":  c #20271E",
">  c #212C1D",
",  c #23311E",
"<  c #1F2B21",
"1  c #212620",
"2  c #232C20",
"3  c #232F20",
"4  c #242F22",
"5  c #252E23",
"6  c #252924",
"7  c #252E24",
"8  c #292E26",
"9  c #282F28",
"0  c #253023",
"q  c #253222",
"w  c #253223",
"e  c #263024",
"r  c #263324",
"t  c #283325",
"y  c #283326",
"u  c #293425",
"i  c #283426",
"p  c #263926",
"a  c #2B3926",
"s  c #293228",
"d  c #2C312B",
"f  c #2B3528",
"g  c #2B3429",
"h  c #2C3728",
"j  c #2C372A",
"k  c #2D362C",
"l  c #2F372D",
"z  c #2B3828",
"x  c #2D392B",
"c  c #2C3A2A",
"v  c #2D3A2A",
"b  c #2D3A2B",
"n  c #2F392C",
"m  c #2F3C2C",
"M  c #303B2C",
"N  c #303B2E",
"B  c #303C2D",
"V  c #333D2E",
"C  c #323F2F",
"Z  c #2F3630",
"A  c #2F3E30",
"S  c #323B30",
"D  c #313D30",
"F  c #343E31",
"G  c #343F32",
"H  c #2F412E",
"J  c #33412E",
"K  c #324030",
"L  c #344031",
"P  c #344033",
"I  c #364232",
"U  c #364433",
"Y  c #374235",
"T  c #374534",
"R  c #384336",
"E  c #394435",
"W  c #364936",
"Q  c #3B4936",
"!  c #374638",
"~  c #3B4639",
"^  c #374939",
"/  c #3D4A3A",
"(  c #3E513C",
")  c #414D3D",
"_  c #43523E",
"`  c #47593F",
"'  c #495A3E",
"]  c #3F4E40",
"[  c #434E40",
"{  c #455241",
"}  c #495543",
"|  c #475944",
" . c #4B5A45",
".. c #485749",
"X. c #4D5C4A",
"o. c #505F47",
"O. c #515E4B",
"+. c #4F5E50",
"@. c #4F6147",
"#. c #4F6049",
"$. c #53624C",
"%. c #556351",
"&. c #586653",
"*. c #5C6A55",
/* pixels */
"f y 4 > * % + + + + + @ $ % % = = = = = * * * * 1 k S S k k k k R D n i 3 = % $ + + + + + o o . o o X               X X         ",
"n j i e > * % + + + + + + @ @ % = = : = * % * * 3 j S S n n j n E K n f 4 = % $ + + + + + + o o o X                             ",
"B x j i 3 = % $ + + @ + @ @ @ + @ % * % % % % = 1 7 f N N n n j E T K x e > * $ + + + @ % $ $ + + + + O                         ",
"K B x z w = & $ $ + @ + @ @ + + + @ # @ $ @ $ * > 1 3 y N N n n E E E N i 3 = % % @ @ % = = = * % % @ + O                       ",
"L D B x i 3 = * $ + @ @ % % # @ + + + @ + + + $ * = > 1 s n n x E E E F j e > * % % * = 7 e e 3 > : * @ + + X X                 ",
"L K D m z w = = % @ @ % * * * # # @ + @ + + + $ % % = > 4 e y j T L E Y n i 3 = = * = 4 s j j y 7 3 6 1 * # + O X               ",
"L D D n f e > = % + + % = 1 1 : = * % @ + + + + @ % * = : > 3 e L L L F N i w > = = > y n B D F D n f 8 3 * @ + O               ",
"L D D n f e > = % + o % 3 7 y y y 7 > * % + + + o + + % * = > > x B B B N j w > = = 3 f N B U E ~ R S k f 7 : * + O X           ",
"D D D n f e = = * + + * 4 f j N N j 8 3 = * % + + + + + $ % * * i i x x x j y 3 = = w i m L U Q T E Y S Z d 9 6 * # O           ",
"D D D n f e = = * @ + * y N F R Y S j f e 4 = % % + + + + + + % > w i i i i w > = = w i B L T Q Q ~ ~ F S k d 9 1 % + O         ",
"D D n x f e = = % $ + > j F F R R F N N j y 7 1 > * % + + + + + = > 4 w y w > > = = 4 i B L T Q Q / / ~ Y S k s 3 * @ o         ",
"D D n f f e = = * % % > j F R ~ ~ R F F N n j y y 3 = % + + + o % % = = > > > > = = 4 i B L U Q ~ / / / E F N f 7 = % +         ",
"x n n f i w = = * % % > j F R ~ ~ ~ R R R F N N j f 4 > * + + o $ % % % % % = = = = 3 e x K K U Q ~ / ~ E L B n s 1 * @ + O O X ",
"e f f f e 3 = = * % % > j F ~ ) ) ~ ~ ~ ~ R R F S N j e > $ o o $ $ % % % % % % * = > 3 i B J U Q ~ ~ ~ T T K m i 3 = $ + + + + ",
"3 e e e e 3 = = * % % > f S R ~ ~ ~ R R R R R R F F N y 4 % o o % % * * % % % % * = 3 3 w z m J U E ~ ~ T T K m f 4 = % @ @ + + ",
"= 3 3 e w 3 = = * $ @ > y N F R ~ R F F F R R F F F N y 4 % + + = > > > = = * % * * > 3 , w a a m U ~ T T T L D x e = % @ # # # ",
"* = = 3 = = = = * % % = y n F R R F F F F F L L F F N i 4 * + % > y i y w w > = * % = > w > , w a N U L L T J B x i > * % % * : ",
"% % * * * * * % % $ $ * w f N L Y L F F B L L L L F B j w : % % w x B F L L B i > = * = = > > > > w a N J L J B x i 4 = * * > 4 ",
"$ $ $ $ $ $ $ + + + $ * 3 y x n F F F F F L L L L L L N i > % * i B E / ) / E L x i w = = = = > & > > , i x J N x z w > * * 3 e ",
"+ + + $ + + + + o o + % > w i f j n N B B B J L L L L B x > * > N L / { } } { ) E F x y 4 > = * = = & & > , i i i i w 3 = = 3 y ",
"$ $ $ $ $ + + + + o + $ * 3 4 y y i j x x N B F L L F N i = % : x L / [ } } } } { ) R B i y > = = % & = & > > > w w 3 > = = > i ",
"% * % % $ + + + + + o + * = > 3 4 4 e i j x x B B B B x i = % * x L / ) } X.X.X.} { ) ~ L N i w > = & % & & & = > > > > = : w j ",
"= > = = * % $ + + + + + + % * * = > > > 4 y i x x x x i w = % % a L / ) {  . . .} { _ ) / J a e > = & % % & % * * = > > > > w i ",
"4 w w 3 > = * % $ + + + + + + $ % * * = = > 4 y i i i w > * $ % i L Q / _ }  . .} { _ ) / U m i , > : & & & & & & & : : : > , i ",
"y f j f y 4 3 3 = * $ + + + + o + $ $ % % * = > 4 4 w > = % $ % e J Q / ) {  . .} { _ ) / Q J a e > > : ; : : : * & * & & & > i ",
"j N B B B n x j i > = % $ + + + + + + + $ % % * = = > = % % $ % e J Q Q / _ { } } { ) ) / / U m i , > > > > > > : : * * & & : w ",
"D Y R E E E L L B j e > = * % % $ + + + + + @ % % % * * $ $ $ $ w N E Q Q / _ { { _ ) ) / / E B x y > > > > 4 y 4 4 > : & % : 4 ",
"E / / / / / / Q E E B j w > = * % $ $ + + + @ @ % @ @ @ @ + + + > x L T Q Q ) ) ) ) ) ) / / R F x y 4 > > > y x B B i 3 > = = 3 ",
"E / ) _ _ _ _ ) ) ) E L x i w > = % % % @ @ + + + + + + + + + + > i N J L T Q / / / / / / / R D N j y 4 y j N B E ~ L N f e 3 3 ",
"E ) { { } } } _ _ ) / ~ L B x i w : = * * * @ + + + + + + + + + & > i a m B J U R E ~ / ~ ~ R F N j y 4 y N F ~ ) { ) E K n f e ",
"~ ) { }  . . .} { { ) / Q T J B x i 4 > > ; * @ % % % % % + + + % > w e i a m B F L R E R R R F N j y y i B R / { } { ) ~ T D n ",
"~ [ { }  . .X. .} } { ) ) / E T J B x y 8 > : * * * * * * + o + % = > > > , e i j x B F F L F F k f y y i F E ) [ { { ) / / ~ Y ",
"/ ) { }  . . . . .} { { _ ) / E E L B j y 4 > > > 4 y > = & % + % % % & & & > > w y i i x B N N j y e 4 j L ~ / [ [ [ [ [ / / ~ ",
"/ ) { { } }  . . .} { { { _ ) / / T B x i w > > y B L N j y > * = % $ $ % = > > > > w w y i j j y 4 4 4 y F E ) ) ) [ [ [ ) / ~ ",
"/ ) ) { _ ` }  . .} { { { { { ) / Q L N j y > > N ~ ) ~ L B j 4 i > & & % % = = = = > > > > y y 4 3 4 4 y N R ~ / / ) [ ) / / ~ ",
"/ / / ) _ _ _ ` } } { { _ _ _ _ / Q L B N y 4 4 N ) ) ) ~ E F N L a i , > & & & % % % = : > 4 4 1 1 > > 4 j F R ~ ~ / / / / / ~ ",
"E ~ E / / _ _ _ { { { { { { _ _ / E L F B i w w F ) { [ ) / E L ) Q L N i , & = = * * * % * 1 3 > > = > > e n D Y Y R ~ ~ / / ~ ",
"B L E E Q Q ) ) ) [ { { { { { { ) ~ L L B i w i F ) { { { { ) / _ ) Q T B i w > = = * % % % * > > = * > > 4 i x N D F Y E E E E ",
"w i B L L L T E ~ / ) ) ) ) ) [ ) ~ R L B j y i F ) } } { { { _ o.} _ / T B f e 3 1 = = * * = > > = = * = = 4 e f j n N B L L R ",
"w , w i a N N B J L R E E / / ) ) / E L B x i i L [ } } } } } { $.o. .) ~ L n z e 3 3 3 = = = 1 = = * % * = > 3 e f f j x x B B ",
"> > > > , , a a N B B F L L E / / E R L F x i x L ) { } { { { { $.$.o.} ) Q K m f 3 3 w w e y y w > = * = = : = 3 w e e e y i x ",
", > > > > > > , i i i j j x B E E L L F B x i x B / ) [ ) _ _ _ $.$.$.X.{ / E J n y w y z z K K m a e , > = * * * = = > > 4 4 w ",
"a i , , > ; ; ; > > > w w i x B F B N N x i i i N E / ) ) ) _ _ $.$.$.X...{ ~ U K z y f z K T ~ / ~ T B a w > * % % * = = = > > ",
"L B a w , , > > : = = > > > w w i i j i w > > w j L E / ) / / ) @.@.$.X. ._ Q T K m y z m K / { | | { / L B f e = * & * % % * > ",
"Q L J N a i , , > & % % % = = > > > > > > = > > w N L E / Q Q Q  . .X.X. ._ Q W T K x m K ~ { ........{ ) ~ Y B f 3 = = & % % % ",
") / E L B N a i , = & % % % = = = = = = = * = > 4 i x L E T T T '  . . .{ _ / Q T L A m T ] ..X.X.X.X.| { ) / T D y > = = = % = ",
") ) / E L J N a i > > = = & = = = = = = = % = > > w i x L L J J ` `  .| _ _ / ~ T L D m ! { ..+.%.%.O.X. .{ ) / T x w > > = = = ",
"{ ) ) Q T J N N i , > : = = = = = = = = & * = = > > w i x B B B _ _ _ _ _ _ / Q E Y K K ~ { ..+.%.%.O.X.X. .{ ) Q J i , > & & & ",
"_ ) ) Q T T B a i , > > > > > , i , 4 > = = = = = = > > w w y i U T E Q / / Q Q Q L J U Q _  .O.$.$.X.#.X. .{ _ _ Q N e , , & , ",
"_ ) / Q E T B x i w , , y i a B J N x i w > > > > = = = = = = > x B B J U U U L J J J J T ) } X.O.$.$.$.#.X. . ._ / U a , , , , ",
"_ ) / Q Q T B N i y w w i N L Q / E L F B a i w > > = = * * * * w i i a m m m m m a m B U / {  .X.o.X.#.$.#.X. ._ / U m , , , p ",
"_ ) ) Q Q T B N i i y i j N ) ) _ ) / / E L F x i w > = = = = * , w w e a a a a a i a m J Q { } X.X.X.X.X. . . ._ / W m e e e x ",
"_ ) ) ) Q T B x i i i i j B ) } } { ) ) ) / / R F x i w > 3 > = , , , , , , w w e e e a m J / {  . . . . .| | | { _ Q K a e a H ",
") ) / Q Q T B a i i i y i N / } } { { [ ) ) ) / ~ E L B i y e > e , w , , , , , , , e e i a m U / _ _ _ _ _ _ _ _ ( ~ U z e x K ",
"/ Q Q Q T L N a i i i w y B Q } } } { { { { { ) ) / / E L n i 4 a a a i i e , , , , , , e i a m J E / / ( ( ( ( ( ( ^ K z y x K ",
"Q Q T Q T J N a i y y , w N E { } { { { { { { { { ) ) / E F x e a x x m N m a i e , , , e i a a a m J U W W W W Q W U H z p x K ",
"E T T T T L N a w w w > w N L ) } { { { { { { { { { ) ) / L j y m m N J E Q T L N a e , , e e e i a m H K H H H K K m x p p x K ",
"E T T T E K N i w w w > w N L ) } { { { { { { { { { ) ) / L x i B J U Q ) _ _ _ / T J m a i e i a i e e p p p x H x x p y y z H ",
"L L L L Y K n f i y w 4 w x L ) } { { { { { { { { _ ) / / J x i J L Q / {  . . .} { _ ) Q J m a a a , & = - - w w w w w w e y z ",
"m B B B D m z i i y w 4 w x T ) } { { { { { { { { _ ) / / L x i J L Q {  .X.$.$.$.O.X.X.} _ / U B x w = = = - = - - = = = > w z ",
"y i x x x x i y y y w 4 w x L ) _ _ ) { { { { { { _ ) / / L x i J U / } X.$.&.&.&.&.%.$.o.X.} _ Q U H w - , - - w w w - = = - y ",
"3 w e y f e w w w w w > w x B E ) ) / / ) { { { { { ) / / L x i J L /  .o.&.*.*.*.*.&.$.o.o. .} ) / Q p p w w w p p e e w w w w ",
"= > 3 3 3 3 3 3 3 4 4 4 4 f x L E ~ ~ ~ / / ) [ { [ ) / / L x i J U /  .o.&.*.*.*.*.*.&.$.$.X. ._ _ ( a p w p p p x x x p y w w ",
"= = < 3 3 3 3 1 < 3 3 3 3 e y j N F R T E E E / / / / E E D j i J U /  .o.&.*.*.*.*.*.*.*.$.o.X. .| Q x a p x H K W ^ W K m p y "
};
