/* XPM */
static const char *wall_straight[] = {
/* columns rows colors chars-per-pixel */
"64 64 112 2 ",
"   c #0E130D",
".  c #0F1A0D",
"X  c #10150F",
"o  c #101A0F",
"O  c #111610",
"+  c #141B13",
"@  c #181D17",
"#  c #1A1F19",
"$  c #172213",
"%  c #1A2516",
"&  c #1C2917",
"*  c #1C2519",
"=  c #1E2A1B",
"-  c #1E311D",
";  c #202717",
":  c #20261E",
">  c #212C1D",
",  c #23321E",
"<  c #28371F",
"1  c #212620",
"2  c #242D21",
"3  c #282D27",
"4  c #282F28",
"5  c #253322",
"6  c #293525",
"7  c #263926",
"8  c #2B3A26",
"9  c #273629",
"0  c #2A3428",
"q  c #2A3429",
"w  c #2B3529",
"e  c #2C3728",
"r  c #2C3729",
"t  c #2C372A",
"y  c #2E352D",
"u  c #2B3B28",
"i  c #2C3B29",
"p  c #2E3B2B",
"a  c #2E382C",
"s  c #2E392C",
"d  c #2F3F2C",
"f  c #303F26",
"g  c #303B2C",
"h  c #313D2C",
"j  c #303C2D",
"k  c #333D2E",
"l  c #2F3630",
"z  c #2F3E30",
"x  c #323C31",
"c  c #333E31",
"v  c #343F31",
"b  c #343F32",
"n  c #2F412E",
"m  c #33412D",
"M  c #30402E",
"N  c #38472F",
"B  c #334030",
"V  c #364333",
"C  c #364633",
"Z  c #364134",
"A  c #374235",
"S  c #374534",
"D  c #384435",
"F  c #384535",
"G  c #394535",
"H  c #3A4637",
"J  c #364936",
"K  c #394936",
"L  c #3B4A36",
"P  c #374638",
"I  c #3A4538",
"U  c #3B4739",
"Y  c #3C473A",
"T  c #374939",
"R  c #3B4838",
"E  c #3C4B39",
"W  c #3D4B3A",
"Q  c #3C4C39",
"!  c #3F4A3D",
"~  c #3E4D3D",
"^  c #3F503C",
"/  c #404F37",
"(  c #414E3D",
")  c #40503D",
"_  c #43523D",
"`  c #48573F",
"'  c #47593E",
"]  c #3F4E40",
"[  c #434E40",
"{  c #415040",
"}  c #465341",
"|  c #495644",
" . c #475943",
".. c #4B5A45",
"X. c #495749",
"o. c #4D5C4A",
"O. c #505F47",
"+. c #515E4B",
"@. c #4F5E50",
"#. c #4F6147",
"$. c #4F6048",
"%. c #506146",
"&. c #53634D",
"*. c #58694F",
"=. c #566551",
"-. c #596753",
";. c #576850",
":. c #5B6A54",
">. c #5F7056",
",. c #5F7058",
"<. c #607157",
"1. c #617258",
/* pixels */
"V B p 6 5 = % % $ * * % * = > 5 6 6 5 5 2 2 2 2 0 F ! ! U U U U F c s 6 2 = % $ + + + + + o o . o o X               X X         ",
"R F V j 6 5 = % % * % * * % * 2 3 6 6 2 2 > 2 2 r F ! ! U F F F F B s 0 2 = % $ + + + + + + o o o X                             ",
"E K S B p 5 > & % % * * * * * * * 2 3 2 > = > 5 0 s V U E R K F F S B p 5 > % $ + + + @ % $ $ + + + + O                         ",
"^ Q K C d 7 , = = % * * * * * * * * * * = * = 2 6 0 r c U E R F F F F g 6 2 = % % @ @ * = = = % % % @ + O                       ",
") ~ Q K C u 5 , = % % * > > > * * * * % % % % = 2 5 6 0 v F F F F F F v r 5 > * * * * * 2 5 5 2 > : * @ + + X X                 ",
") ) ~ R C d 7 5 = % * 2 2 2 2 > : * * % % $ % = > 2 5 6 p j M F S V F V s 6 2 = * * * 2 0 r r 0 2 2 3 1 * # + O X               ",
") ~ ~ R S M 7 5 > % % * 5 0 0 6 5 2 = = % % % % * = > 5 6 6 p j V V V v g 6 5 > = = > 6 s j c v c s 0 3 2 * @ + O               ",
"{ ~ ~ R S j 6 5 > % $ = r j j c c s 6 2 = % % % $ % * > 2 5 6 6 p j j j g r 5 > = = 2 0 g j C F F F c y 0 3 : * + O X           ",
"~ ) ~ R V d 7 5 > % % > g A F E E A j r 5 > = % % % % % = > 2 5 6 6 p p p r 6 2 = = 2 6 d V C K S F V c l 0 4 3 * # O           ",
"( ( ~ F V d 7 5 > * * 5 v U ( [ } ( F V j p 5 > = % % % % % * > 2 5 6 6 6 6 5 > = = 2 6 j V S K F U U v c y 0 4 1 * + O         ",
"~ ~ R S V d 7 5 > = * 6 V ( } | | [ E U F V g r 6 5 = * % % % % = > 2 5 6 5 > > = = 2 6 j V S K K E ! Y V c y 0 2 * @ X         ",
"~ ~ R V B d 7 5 > = = 6 F ( | | | | [ ( E F F v j p 5 > * % % $ % % = = > > > > = = 2 6 j V C K R E ~ ! F v g 0 3 * % +         ",
"S R R S B d 7 5 > > > 6 F ( | X.o.| | } [ ( E U F V g 6 > % % $ $ % % % % % = = = = 2 5 p B B C K R ! R F V j s 6 2 * @ O O O X ",
"B V S V B u 7 5 5 > > 6 V ( | +.+.o.| | | | } ( ( E F j 6 = $ $ $ $ % % % % % % * = > 2 6 j M C K R R R S S B d 6 2 * $ + + + + ",
"p d d B d p 7 7 > = > 6 V ( | o.o.| | | } | } } } ( U j p = $ $ % % * * % % % % % = 2 2 5 u p M C F R R S S B j 0 2 = * @ @ + + ",
"7 u u d d u 7 7 > = = 6 v E } | | } [ [ [ } } } } ( U v p > % % = > > > = = * % % % > 2 , 5 7 7 d C R S S S V c p 5 = * @ # # # ",
"> 5 7 u 6 6 7 5 > = = 5 j F ( } | } ( ( ( ( } ) ( ( E V p 2 * = > 5 6 6 5 2 > = * % * > 5 > , 5 6 p V B V F M j p 6 > * * * * : ",
"= = > 5 5 5 > > = = = 5 d V E { } [ ( ( ( ) ) ) ) ( E C j 5 = > 5 p j v V V j 6 > = * = = > > > > 5 6 p M V M j s 6 2 = % * > 3 ",
"& & & = = = & % % % = 5 p B F R ( ( ( ( ( ) ) ) ) _ ) K V 6 > 5 r j F E ( E F V p 6 5 = = = = > = > > , 6 p M j p u 5 > * % 2 5 ",
"% % % & % % $ $ $ $ % > 6 d V V F U E Q ( ( ) _ } ) _ Q C 6 > 6 g V E [ | | } ( F v p 6 2 > = * = = = = > , 6 6 6 6 5 2 = = 2 6 ",
"= = = = = % % $ $ $ % = 5 u p j j V F K K K Q ( ) ) ( E C 5 > 5 p V E [ | | | | } ( F j 6 6 > = = % & = = > > , 5 5 2 > = = 2 6 ",
"= > > = = % % $ $ $ $ % > 5 6 p p p j M C F K E Q Q Q K V 5 = 5 p V E ( | o.o.o.| } ( F V g 6 5 > = * % * * & = > > > > = > 5 r ",
"5 6 7 5 5 > = % $ $ $ % % = > 5 5 6 6 7 p M C F K K K V p , = , 7 V E ( } ......| } ( ( E M 8 5 > = & % % * % % * = > > > > 5 6 ",
"p d d p 6 7 5 > = % % $ % % % & = > 2 , 5 7 p M M M M j 7 , = > 6 V K Q ) | ....| } ) ( Q C p 6 , > ; * * * * * * * ; ; ; > , 6 ",
"j V S V j p p 0 5 > = % % % $ $ % & = = > , 6 7 p p p 7 5 > & = 5 M K E ( } ....| } ) ( Q K M 8 5 > > ; ; ; ; ; * * * * * & > 6 ",
"F E E Q E K F C V 6 5 > = % % % % % % % & = > , 5 5 6 5 > = & = 5 M K K Q ( } | | } ( ( Q E C p 6 , > > > > > > ; ; * * * * ; 5 ",
"~ } } | } } } ) Q S j 7 5 > > = = % % % % % = ; > > > > = & & = 5 j F K K Q _ } } ) ( ( E E F j p 5 > > > 2 2 5 2 2 > ; * % ; 2 ",
"} o.o.o.o....... .} ( C p 6 5 , = = = * * * * : > * * * * * % * > p V F K E ( ( ( ( ( ( ! E F c p 6 2 > 2 2 6 p j j 6 2 > = = 2 ",
"..o.&.*.*.*.&.%.%...| ) K M p 6 , > > > : * * * * % % % * % % % > 6 j M V F K E E E ! ! E U F c g 0 3 2 6 r g v F U V g 0 5 2 > ",
"..&.=.:.:.:.:.*.*.&.o..._ Q F M p 6 5 2 2 > * * % * * * % % % % * > 6 8 p j M C F F U E U U F v g r 6 2 6 g v F ( } ( F B s 0 5 ",
"..&.=.:.:.>.>.:.:.-.&.....` ) Q F M p r 6 2 > ; ; ; ; ; ; * % % % > 5 5 6 7 p j v V F F F F F v g r 6 6 6 g F E } | } ( U S c s ",
"..=.=.:.,.1.1.:.:.:.-.&.+...| } ) Q F v j r 5 2 2 2 > > > * $ % % = > > > , 5 6 r p j v V A v v s 0 6 3 6 v F / [ } } ( ( ! U V ",
"o.&.=.:.:.<.1.<.:.:.:.=.*.&... .} ) E F V p 6 5 6 s j 6 5 > ; % % % % & & = > > 5 5 6 6 p j g g r 6 3 2 6 v U ! [ [ [ [ [ ~ ! U ",
"o.&.=.:.:.:.:.<.,.:.:.;.=.*.&.....} ( F V j 6 8 M ( ) E A j 6 , = % $ % % = > > > > 5 5 6 6 r r 6 2 2 2 6 c F ! ( ( [ [ [ ( ! U ",
"o.$.&.:.;.*.:.:.:.:.:.;.=.=.=.%.o...) E F j 8 8 K | o.| } ( V j 6 > & & % % = = = = > > > > 6 6 2 2 2 2 6 g V U E ! ( [ ( ~ E U ",
"..o.o.&.*.*.*.:.:.:.:.;.*.*.*.*.$. .) ( K M p p / +.&.+...| ( E V p 6 , > & % & % % % * ; > 2 2 2 2 2 > 2 r c F U U E ! ! ! E U ",
" .........&.*.*.:.:.:.=.=.=.*.*.o..._ ( E M j j ( +.-.=.+.o.| } ( K V j 6 , = = * % % * % * 2 2 > > = > > 5 s c V V F U R E E U ",
"K ` |  . ...%.%.&.=.=.=.=.=.=.=.+...} ) K V j M ( &.-.-.=.=.&...` ( K F j 6 5 > = = % % $ % * > 2 * * > > 2 6 p g c v V F F F F ",
"p M Q ` ) ` `  ...o.+.+.&.&.&.=.+...} ) Q C M V _ &.:.:.-.-.-.*.O.| ) K S j 0 5 2 2 = = * * * > > = = * = = 2 5 0 r s g j V V F ",
"p p j M C Q Q / ) } } } ..o.o.+.+...} ) Q F M C _ =.:.:.:.:.:.-.&.+...( R V s 0 5 2 2 2 > > > 2 = = % % % = > 2 5 0 0 r p p j c ",
"8 8 8 8 8 M m C K Q Q ( ) _ | ....| } _ ( F V F ) +.-.-.-.-.-.-.*.&.+.| ( F B d 0 2 2 5 5 5 7 6 5 > = * = = : = 2 5 5 5 5 6 6 p ",
"8 8 8 8 8 8 8 f M M M C C K ( } | ) ) ( Q K C F ( ..&.=.*.*.*.*.*.&.+.o.| ( F M s 7 5 7 u p c c d 7 5 , > = * % % = = > > 2 2 5 ",
"F M p p 8 < , , 6 7 8 p j M F Q ) ( E K K V M C E | o.+.%.%.&.&.&.%.%.o.o.} E C B u 7 7 u B S E E R S j 7 5 > * % % % = = = > > ",
") Q N M p 8 8 8 6 5 5 6 6 8 j j M V C M p 7 7 p C ) | o.+...%.%.#.#.%.o...) K S B d 7 u d B ! { | | { E V j 0 5 = % & % % % % ; ",
"..` ( C N M M f 8 , > > > , 5 6 6 6 7 7 6 5 6 8 j K ) | ..................) K S S B r d B R { X.o.o.X.} ( U V j 0 2 = = % % $ % ",
"+...| _ / K M m p 5 , > = > , , , 5 5 5 5 , 5 7 p V K ) | ` _ ' `  ... .} ) Q K S A z d S ] X.o.o.o.o.| } ( E S c 7 2 = = = % * ",
"&.+... .) ) K C M 8 7 5 5 , 5 5 , 5 5 5 , , , 6 7 p M K ) ) ) ) ' `  .} ) ^ Q R S V c d P { o.@.=.=.+.o...} ( E S p 5 > > = = = ",
"=.%.+...` ) Q K M j 8 6 , , , 5 5 5 5 5 , , , 5 6 7 p M K K Q Q ) ) ) ) ) ) Q K S V B B U } o.@.=.=.@.o.o...} ( K M 6 5 > = = > ",
"*.%.%... .` / C M j 8 8 6 8 8 j m j 8 6 5 5 5 5 5 5 6 8 p j j V C F F K Q Q K K F V V F K ) ..+.&.&.o.$.o...} ` ( C j 5 , > = , ",
"*.%.$... .` ( K m j p p M M F / _ L F M p 8 6 6 6 5 5 5 5 5 7 6 p j j M C C C V M M M M F ( | o.+.&.%.%.$... . ._ Q C 7 , , , , ",
"*.%.%... .` / K m m j j M L ` ....| _ ( E F M p 8 6 5 , , , 5 5 5 6 7 8 p p j p p p p j C Q } ..o.+.o.$.%.$.....) Q C p , , , 8 ",
"*.%.%... .` / K m m m M M Q +.&.*.%...o...} ( K M p 6 5 5 5 5 5 5 5 5 5 7 8 7 8 7 6 7 p M K } | o.o.....o.o.....` Q K d 5 5 5 p ",
"&.%.%.O. .` / K m m m M C ( %.:.:.=.&.&.+.o...} ( K M p 8 p 6 5 , , , , 5 , 5 5 5 5 5 7 p V Q } .......... . . .} ) K B u 5 7 M ",
"%.%..... .` / C M M M m M Q o.:.:.-.=.=.&.&.+.o...| ) E C M j 6 5 5 5 , , , , , , , 5 5 6 8 p C Q ) ` _ ) ) ) } ) ) R C u 5 u B ",
".... . .` ` Q N M M M j M Q ..:.:.:.-.-.=.=.=.&.+.o...| ) K V p 7 7 7 6 6 6 , , , , , 5 6 6 7 p M F Q Q ^ Q ^ ^ ^ ~ T B u 7 s B ",
" . . . .` ) Q N M M M p j K | =.:.-.-.-.-.=.=.=.=.&.+.o...( F j 8 p p p j p 7 6 , , , 5 6 6 7 7 8 p M C J J J J K J C n u 7 d B ",
" . . . .| ) Q F M j j 8 p K ` &.:.-.-.-.-.-.-.-.=.=.&.+.o.{ F V p p j M F K F V j 7 5 , , 5 5 6 6 7 u n C n n n C C d p 7 7 p B ",
"| } } } } ) K C M j p 8 p K ` &.:.-.-.-.-.=.=.=.=.=.&.+.o.) F M j M C K ( } ) ) E F M p 7 6 5 6 6 6 5 5 7 7 7 p n p u 7 7 7 u z ",
") } } ) { ^ R C M M p 8 p K ` &.:.-.-.=.=.=.=.=.=.*.&.o...) F M M V K ( } ......| } ) ( K V p 7 7 7 , & = - , 5 5 5 5 5 5 5 7 u ",
"Q Q Q Q ~ Q S C M M p 8 j K } &.:.-.-.=.=.=.=.=.=.*.&.o...) F M M V K } ..o.&.&.&.+.o.o.| ) E C j p 5 = = = - = - - = = = > 5 u ",
"M C S K K K M M M M p p j K ) +.*.*.&.=.=.=.=.=.=.*.&.o...) F M M V Q | +.&.-.-.-.=.=.&.+.o.| ) K C n 5 - , , , 5 5 5 - = = = 5 ",
"u p M M B M p p p p p p j F K | +.+.o.o.&.=.=.=.=.=.&.o.o.) F M M V Q | +.-.:.:.:.:.-.&.+.+...| ( Q K 7 5 5 5 5 5 7 7 7 5 5 5 5 ",
"7 7 u u p s u u p p p p p S F ) | ......o.o.&.=.=.=.&.o.o.) C M M C Q | +.-.:.:.:.:.:.-.*.%... .} ` ^ p 7 5 7 7 7 p p p 7 7 5 5 ",
"7 7 9 0 u u r 9 0 u u u r d B F K ( } } } ....o.o.o.o...} ~ C M M C Q | +.=.:.:.:.:.:.:.:.*.O... . .Q p 7 7 p n C J T J B d 7 7 "
};
