/* XPM */
static const char *wall_outer_left[] = {
/* columns rows colors chars-per-pixel */
"64 64 105 2 ",
"   c #0B0F0A",
".  c #0D110C",
"X  c #0F180D",
"o  c #10150F",
"O  c #131C0F",
"+  c #111511",
"@  c #151D12",
"#  c #181E15",
"$  c #191E18",
"%  c #162214",
"&  c #1B2917",
"*  c #162418",
"=  c #1C2519",
"-  c #1D291B",
";  c #20261D",
":  c #212C1D",
">  c #24321E",
",  c #28371F",
"<  c #222721",
"1  c #232D21",
"2  c #282F25",
"3  c #282D28",
"4  c #253223",
"5  c #283325",
"6  c #283227",
"7  c #293425",
"8  c #283625",
"9  c #283727",
"0  c #283826",
"q  c #2C3A25",
"w  c #273528",
"e  c #2A3428",
"r  c #2A3429",
"t  c #2C3629",
"y  c #2C342A",
"u  c #2D362B",
"i  c #2C372B",
"p  c #2B3B28",
"a  c #2C3B29",
"s  c #2E3B2B",
"d  c #2E382C",
"f  c #2F3A2D",
"g  c #2F3F2C",
"h  c #303F26",
"j  c #303C2D",
"k  c #313C2D",
"l  c #313C2E",
"z  c #313D2F",
"x  c #333D31",
"c  c #333E31",
"v  c #333F31",
"b  c #343F32",
"n  c #33412D",
"m  c #30402E",
"M  c #38472F",
"N  c #334030",
"B  c #354232",
"V  c #364333",
"C  c #364633",
"Z  c #364134",
"A  c #374534",
"S  c #384535",
"D  c #394535",
"F  c #3A4737",
"G  c #394936",
"H  c #3C4A35",
"J  c #3A4538",
"K  c #3B4539",
"L  c #3B4639",
"P  c #3B4838",
"I  c #3C4B39",
"U  c #3C4C39",
"Y  c #3F4A3D",
"T  c #3E4D3D",
"R  c #3F503C",
"E  c #404F37",
"W  c #414D3C",
"Q  c #40503D",
"!  c #44523D",
"~  c #48573F",
"^  c #47583C",
"/  c #3F4B40",
"(  c #434F40",
")  c #415040",
"_  c #465341",
"`  c #495544",
"'  c #475842",
"]  c #4B5A45",
"[  c #4C5748",
"{  c #4E5C49",
"}  c #505F47",
"|  c #515E4B",
" . c #4F6047",
".. c #4F6048",
"X. c #506146",
"o. c #53634D",
"O. c #58694F",
"+. c #566551",
"@. c #596753",
"#. c #576850",
"$. c #5B6A54",
"%. c #5F7056",
"&. c #5F7058",
"*. c #607157",
"=. c #617258",
/* pixels */
"V N s 8 4 - & & % = = & = - : 4 5 5 4 4 1 1 1 1 e S Y Y L L L L t 5 1 : = % @ @ o X X X o X . . . X . .               . . .     ",
"P S V j 8 4 - & & = % = = = = 1 2 5 5 4 1 1 1 1 t S Y Y L S S S t 5 1 1 = % @ @ + X X X O X X . . . .                           ",
"I G A N s 4 : & & % = = = = = = = 1 2 1 : - : 4 e d V L I P G S t t 5 1 - = # @ o o X + @ @ @ X X X . .             . .         ",
"R U G C g 8 > - - & = = = = = = = = = - - = - 1 5 e t v L I P S s s t 2 : & % @ @ + + @ % % # # @ @ + o . . . . . . . .         ",
"Q T U G C p 4 > - & & = : : : = = = = & & % % - 1 4 5 e v S S S t t d e 1 = = # @ @ @ # = = = & = $ @ + + . . . . . . .         ",
"Q Q T P C g 8 4 - & = 1 1 1 1 : ; = = & & % % = : 1 4 5 s j m S t e t t 2 1 = # # # # = 1 1 1 1 = = = $ @ @ + . . . . .         ",
"Q T T P A m 0 4 : & % - 4 e e 5 4 1 - - & % % & = - : 4 5 8 s j e e e 5 2 : = % # % = : 1 2 5 e e 2 < ; = # + o . . . .         ",
") T T P A j 8 4 : % % - t j j v v d 8 1 - & % % % & = : 1 4 5 8 1 4 5 4 1 1 = & # # = 1 2 5 e t d t 3 1 < = $ @ + . . .         ",
"T Q T P A g 8 4 - & % 1 j Z S I I Z j t 4 : - & & & % % = : 1 4 : : 1 1 1 1 : = # % = : 4 e p s s t e 3 1 1 < $ # + . .         ",
"W Q T S A g 8 4 - = = 4 v L W _ _ W S V j s 4 : - & & % & & = : = - : : : : - & % % = : 4 e s s s d t t 3 1 < ; $ @ +   .       ",
"T T P A V g 8 4 : - = 5 V W _ ` ` ( I L S V j t 5 4 - = & & & & % % = = : = & % % % = : 4 e s s d j v v t 3 2 < = # + .         ",
"T T P V N g 8 4 : - - 8 S W ` ` ` ` ( W I S S v j s 4 : = & & % @ @ % % % & % % = = = : 4 e e s d j v j t e 2 1 = # @ .         ",
"A P P A N g 8 4 : : : 8 S W ` [ [ ` ` _ _ W I L S V j 8 : & % % O @ @ @ @ @ # # % # = - 1 5 8 p d d v d t e 4 2 : = @ + . . . . ",
"N V A V N p 8 4 4 : : 8 V W ` | | [ ` ` ` ` _ W W I S j 8 - @ @ O O @ @ @ @ @ @ # = = & : 4 8 8 s g d d p e 5 4 : = # @ o + + o ",
"s g g N g p 8 8 : - : 8 V W ` [ [ ` ` ` _ ` _ _ _ W L j s - % % @ @ @ @ @ @ @ @ @ # = = = 1 4 4 8 t d d t e 5 4 1 = % @ + + + + ",
"8 p p g g p 8 8 : - - 5 v I _ ` [ _ ( ( ( _ _ _ _ W L v s : % & % % & % % % @ @ @ @ = = & = : : 4 8 d p e t e 4 1 - % @ @ @ + @ ",
": 4 8 p 8 8 8 4 : - - 4 j S W _ ` _ W W W W _ ! W W I V s 1 = - % ; : : : = = % # @ # % = & = - : 4 e 8 e t 8 5 1 : = # @ @ # $ ",
"- - : 4 4 4 : : - - - 4 g V I ) _ ) W W W Q ! Q Q W I C j 4 - : = 1 5 5 t 5 2 : = # @ # % & & % = = : 4 8 t 8 4 1 : = # # @ = = ",
"& & & - - - & & & & - 4 s N S P W W W W W Q Q Q Q ! Q G V 5 : 4 : 5 t j v j d 5 1 : = % % % % % % % & = : 1 4 4 1 1 = = # # = : ",
"& & & & & & % % % % & : 8 g N V S P I U W W Q ! _ ! ! U C 8 : 5 1 t j v S S S v t 5 1 : = % % @ # % % & & = : : : : = = % % = : ",
"- - - - - & & % % % & - 4 p s j j V S G G H U W Q Q W I C 4 : 4 1 t j v S L L S V v t 4 : ; = % @ @ % % % % & = - - = % % % = : ",
"- : : - & & & % % % % & : 4 8 s s s j m C A G I U U U G V 4 - 4 1 5 j v L I I L L S v j 8 1 : = % % @ @ @ # % % % & % % % % = 1 ",
"4 8 8 4 4 : - & % % % & & - : 4 4 8 8 0 s m C A G G G V s > - > : 8 j v S L I L S Z V v j 5 : - & % % @ O @ @ # # % % % % % = : ",
"s g g s 8 8 4 : - & & % & & & & - : 1 > 4 0 s m m m m j 0 > - : : 8 j j V S L S S S v v j t 4 : = % % @ @ # # # @ @ % % % % = : ",
"j V A V j s s e 4 : - & & % % % & & - - : > 5 0 s s s 0 4 : & : - 8 j j j V S S S S V j j j 5 1 - & = % # % # # # @ # # @ % & ; ",
"S I I U I G S C V 8 4 : - & & & & & & & & - : > 4 4 5 4 : - & - - 5 s j j v S S S S v v j j t 4 : = & = = = = = % % # # @ @ % = ",
"T _ _ ` _ _ _ Q U A j 0 4 : : - - & & & & & - ; : : : : - & & - - 4 s s j j V S S V v v j j d 4 : : = = = = ; ; ; = = # @ @ % = ",
"_ { { { { { { ] ' _ W C s 5 4 > - - - & = = = ; : = = = = & & - = 1 e s s j v v v v v v v j t 5 1 : = = = = ; 1 5 5 1 = & % % & ",
"] { o.o.o.o.o.X.X.{ ` Q H m s 5 > : : : ; = & & = % % % & & & & % : 4 5 8 s j j j j v v j d t 5 2 1 ; = ; : 1 5 t d e 1 1 - = = ",
"] o.+.$.$.$.$.O.o.o.{ ] ! W A m s 4 4 1 1 : = & = & = = & & & & @ = : : 4 4 8 e t t t j j t t 2 2 1 ; ; ; 1 5 t v b v t e 2 1 = ",
"] o.+.$.$.%.%.$.$.+.o.{ ] ~ ! U A m s t 8 2 : ; ; ; ; ; ; & % & @ % = - : : 4 4 5 e t t t t t 5 2 1 : ; : 5 t j b S V v d t 5 1 ",
"] +.+.$.&.=.=.$.$.$.@.o.| { ' _ ! U S v j t 4 2 1 : : : : = % & @ % % & & = - : 1 1 2 5 5 t t 5 1 1 ; ; : 5 t j v V V v v v t e ",
"{ o.+.$.$.*.=.*.$.$.$.+.o.o.{ ' _ Q I S V s 5 4 8 d j 8 4 : - & O O @ % % % & = = : : : 1 5 2 2 1 ; = = : e d v b b b b v v j d ",
"{ o.+.$.$.$.%.*.&.$.$.+.+.o.o.{ ] _ W S V j 8 q m W ! I A j 8 > % O O O @ % % % % = = = : : 1 1 ; = = = ; 5 t v v v v v v v v t ",
"{ ..o.$.#.O.$.$.$.$.$.#.+.+.+.X.{ ] ! I A j q q H [ [ ` _ W V j ; & % % @ @ % % % % % % = = ; ; = = = = ; 2 t j v v v b v v j d ",
"] { { o.o.o.O.$.$.$.$.#.o.o.o.o...' ! W H m s s W | o.| ] ' W I t 1 ; & % % @ % @ @ @ # % & = = = = = = = 1 5 t t d j v v v j d ",
"' ] ] { { o.o.O.$.$.$.+.+.+.o.o.{ ] ! W I m j j W | @.+.| [ ` _ v j 8 4 : = % % # # @ @ @ # = = = $ # % % - 1 5 e t t t d j j d ",
"H ~ ' ' ' { X.X.o.+.+.+.+.+.+.+.| ] _ Q H V j m W o.@.@.+.+.o.{ A j j q 4 : = & % # # @ @ @ # $ = $ # # % = : 1 2 e e e t t d t ",
"s m U ~ ! ~ ~ ' ] { | | o.o.o.+.| ] _ ! U C m V ! o.$.$.@.@.@.o.W A m j t 4 1 = = = = # # # # = = = % # % % = = 1 1 1 2 5 5 t t ",
"s s j m C U U E ! _ _ _ ] { { o.| ] _ Q U A m C ! +.$.$.$.$.$.@.W W H v d e 1 1 = = = = = = = = = % # @ # % = & = 1 1 1 1 1 2 5 ",
"q q q q q n n C H U U W Q _ ' ] ] ' _ ! W S V S Q | @.@.$.@.@.@.W W W S v d 5 4 : & & = = - - 1 - & % @ % # # % & = = - - : : 1 ",
"q q q q q q q h m m m C C G W _ _ ! Q W W G C A W ] o.+.o.o.o.o.W W W I S j s 8 1 - - - 1 1 4 4 4 : - - & # # @ # % % = = = = = ",
"A m s s q , > > 5 0 q s s m S U Q U U U H V m C I ' { | X.X.o.o.W W W I I V j e 4 : - 1 1 4 d j j g s 4 1 = = # @ @ # # % % % & ",
"! U M m s q q q 5 4 4 5 8 q j j m C C m j q 0 s C Q ' { | {  .X.U U W I I V d p w 4 - 1 4 e j V A S V j e 4 1 = % # % # @ @ @ % ",
"] ~ W C m m m h q > : : : > 4 5 q 5 0 0 5 4 5 q j H Q ` ] { ] ] H U U H S V s t e 5 1 4 e d V L L Y L V v j t 2 1 & = % @ @ @ @ ",
"| ] ' ! E H m m s 4 > : - : > > > 4 4 4 4 > 4 0 s V G Q ' ~ ! ^ C C H S S V g s e e 4 4 w v L Y Y Y Y S V v j e 4 - & = % % @ @ ",
"o.| { ' ! ! H C m q 0 4 4 > 4 4 > 4 4 4 > > > 5 0 s m G ! Q ! ! A A G S V N g d t e 5 4 d V L / ( ( W L S S v j t 1 = & % % % # ",
"+.X.| ] ~ ! U H m j q 5 > > > 4 4 4 4 4 > > > 4 8 0 s m G H U U m V V V V V g s p e e e d V L / ( ( W Y L S S v j 5 : = & % % % ",
"o.X.X.{ ' ~ E C n j q q 5 q q j n j s 8 4 4 4 4 4 4 5 q s j m V t s s j j j j s s 8 8 t s V L W W W Y Y I S Z V j s 4 - & & & & ",
"o.X.X.{ ' ~ E C m j s s m m A U ! H A m s q 8 5 5 4 4 4 4 4 8 8 : 4 5 5 8 8 8 8 8 4 4 8 s v S I W W W W U I G G m j 8 : & & & - ",
"o.X.X.{ ' ~ E C n n j j m H ~ ] ] ' ! W H A m s q 5 4 > > > 4 4 - : : : 4 4 4 4 > : > 4 8 j V L W W I U W U H H V j p 4 - - - : ",
"o.X.X.{ ' ~ E C n n n n m U | o.o.X.] [ ] _ Q G m s 8 4 4 4 4 4 = = - - : : : : : : : 4 8 j V S I I I I I I G S C g p 4 - - - 4 ",
"o.X.} { ] ~ E H n n n n C W X.$.$.+.o.o.o.{ ] _ W G m s q s 8 4 = = & & - - - - - - - : 4 8 j V S I G G G G S S C N d 8 1 - 1 4 ",
"X.X.{ ] ' ~ E H n n m n m U { $.$.@.+.+.o.o.| { ] ' Q I C m j 8 - - - - - = = = - - - - : : 4 8 j V V C V C C C N N d e 1 - 1 8 ",
"{ { ' ' ~ ~ E C m m m j m U ] $.$.$.@.@.+.+.+.o.| { ] ` ! G V s : : : : : - - = = = - - - : : 4 5 s j j j j N N N j d w 1 - 1 w ",
"' ' ' ' ~ ! U M m m m s j H ' +.$.@.@.@.@.+.+.+.+.o.| [ ] W S j : 1 : 4 4 4 : : - - - - - : : : : 4 8 p p p p s s s e 4 1 - 4 w ",
"' ' ' ' ' Q U A m j j q s H ~ o.$.@.@.@.@.@.@.@.+.+.o.| [ ) S V 4 1 4 8 t s t 8 4 : - - - - - - : : 1 8 8 8 8 8 8 8 4 > : : : w ",
"' _ _ _ _ Q H C m j s q s H ~ o.$.@.@.@.@.+.+.+.+.+.o.| { Q S m 4 8 t s j V V V j s 5 4 : ; - : : : - - - - > 4 4 4 4 : - - : 4 ",
"Q _ _ Q ) R P C m m s q s G ~ o.$.@.@.+.+.+.+.+.+.o.o.{ { Q S m 8 8 s j V S L S S S V j s 8 4 : : : & % % % & & & & - - - - : 1 ",
"U U U U T U A C m m s q j G _ o.$.@.@.+.+.+.+.+.+.o.o.{ { Q S m 8 8 j V S I W W W W I I S V j t 4 1 - % % % % % % % * % * & - 1 ",
"m C A G G G m m m m s s j G Q | o.o.o.+.+.+.+.+.+.o.o.{ { Q S m 8 8 j S W ( _ _ _ _ ( W W L S V s 8 8 & & & & & & & - & * * & - ",
"p s m m N m s s s s s s j S H ' | | { { o.+.+.+.+.+.o.{ { Q S m 8 8 j S W _ ` ` ` _ _ W W W I S v j s - - - & - - - - - - & & - ",
"8 0 p p s d p p s s s s s A S Q ` ] ] ] { { o.+.+.+.o.{ { Q C m 8 8 j S W _ ` ` ` ` ' _ W W W S A V m 4 - - - - : > : 4 : - - - ",
"8 8 w e p p t w e p p p t g N A H W _ _ _ ] ] { { { { ] _ T C m 5 8 j S W _ ` ` ` ' ' ' _ W W H S S g 4 : - > 4 w t t t e 4 : - "
};
